<svg width="114" height="104" viewBox="0 0 114 104" fill="none" xmlns="http://www.w3.org/2000/svg">
<path fill-rule="evenodd" clip-rule="evenodd" d="M86.8375 30C86.8375 46.569 73.2554 60 56.5 60C39.7451 60 26.1625 46.569 26.1625 30C26.1625 13.4316 39.7451 0 56.5 0C73.2554 0 86.8375 13.4316 86.8375 30Z" fill="#ECB360"/>
<path fill-rule="evenodd" clip-rule="evenodd" d="M78.7474 27C78.7474 41.9116 66.9753 54 52.455 54C37.9341 54 26.1625 41.9116 26.1625 27C26.1625 12.0884 37.9341 0 52.455 0C66.9753 0 78.7474 12.0884 78.7474 27Z" fill="#D76835"/>
<path fill-rule="evenodd" clip-rule="evenodd" d="M80.7696 23.9997C80.7696 37.2548 70.3564 48 57.5101 48C44.6655 48 34.2522 37.2548 34.2522 23.9997C34.2522 10.7452 44.6655 0 57.5101 0C70.3564 0 80.7696 10.7452 80.7696 23.9997Z" fill="#D33A41"/>
<path fill-rule="evenodd" clip-rule="evenodd" d="M78.7478 26.0003C78.7478 38.15 69.2397 48 57.5113 48C45.7828 48 36.2753 38.15 36.2753 26.0003C36.2753 13.8495 45.7828 4.00003 57.5113 4.00003C69.2397 4.00003 78.7478 13.8495 78.7478 26.0003Z" fill="#B6CB46"/>
<path fill-rule="evenodd" clip-rule="evenodd" d="M76.7252 27.9998C76.7252 39.0455 67.67 48.0001 56.5 48.0001C45.3306 48.0001 36.2753 39.0455 36.2753 27.9998C36.2753 16.9541 45.3306 8.00009 56.5 8.00009C67.67 8.00009 76.7252 16.9541 76.7252 27.9998Z" fill="#66AD4A"/>
<path fill-rule="evenodd" clip-rule="evenodd" d="M68.6353 24.0001C68.6353 32.8366 61.3913 40.0001 52.4553 40.0001C43.5188 40.0001 36.2753 32.8366 36.2753 24.0001C36.2753 15.1635 43.5188 8.00009 52.4553 8.00009C61.3913 8.00009 68.6353 15.1635 68.6353 24.0001Z" fill="#AED7DC"/>
<path fill-rule="evenodd" clip-rule="evenodd" d="M70.6577 22.0001C70.6577 29.7318 64.3195 36.0001 56.5001 36.0001C48.6806 36.0001 42.3428 29.7318 42.3428 22.0001C42.3428 14.2678 48.6806 8.00009 56.5001 8.00009C64.3195 8.00009 70.6577 14.2678 70.6577 22.0001Z" fill="#5BB1CF"/>
<path fill-rule="evenodd" clip-rule="evenodd" d="M70.6571 22.9997C70.6571 30.1795 65.2243 36 58.5221 36C51.82 36 46.3871 30.1795 46.3871 22.9997C46.3871 15.8207 51.82 10.0001 58.5221 10.0001C65.2243 10.0001 70.6571 15.8207 70.6571 22.9997Z" fill="#25A8C3"/>
<path fill-rule="evenodd" clip-rule="evenodd" d="M56.4994 36C50.9149 36 46.3871 31.0749 46.3871 24.9996C46.3871 18.9244 50.9149 13.9999 56.4994 13.9999C62.0844 13.9999 66.6121 18.9244 66.6121 24.9996C66.6121 31.0749 62.0844 36 56.4994 36Z" fill="#1B1A18"/>
<path fill-rule="evenodd" clip-rule="evenodd" d="M62.0178 21.8282C61.0557 23.4197 59.1642 24.3401 57.7923 23.8826C56.4203 23.4257 56.0883 21.7643 57.0496 20.1722C58.0117 18.5801 59.9032 17.6603 61.2751 18.1172C62.6471 18.5741 62.9791 20.2355 62.0178 21.8282Z" fill="white"/>
<path d="M0.8 95V81.88H4.7C5.59333 81.88 6.37333 81.9867 7.04 82.2C7.72 82.4133 8.24667 82.7533 8.62 83.22C9.00667 83.6867 9.2 84.3067 9.2 85.08C9.2 85.7333 9.03333 86.3267 8.7 86.86C8.38 87.38 7.90667 87.74 7.28 87.94V88.02C8.06667 88.1667 8.70667 88.5 9.2 89.02C9.70667 89.54 9.96 90.2533 9.96 91.16C9.96 92.0133 9.74667 92.7267 9.32 93.3C8.90667 93.8733 8.32667 94.3 7.58 94.58C6.83333 94.86 5.96667 95 4.98 95H0.8ZM2.46 87.46H4.4C5.52 87.46 6.32667 87.2667 6.82 86.88C7.31333 86.4933 7.56 85.9667 7.56 85.3C7.56 84.54 7.3 84 6.78 83.68C6.27333 83.36 5.50667 83.2 4.48 83.2H2.46V87.46ZM2.46 93.68H4.74C5.87333 93.68 6.75333 93.4733 7.38 93.06C8.00667 92.6333 8.32 91.98 8.32 91.1C8.32 90.2867 8.00667 89.6933 7.38 89.32C6.76667 88.9333 5.88667 88.74 4.74 88.74H2.46V93.68ZM12.3978 95V85.28H13.7578L13.8978 87.04H13.9578C14.2911 86.4267 14.6978 85.94 15.1778 85.58C15.6578 85.22 16.1711 85.04 16.7178 85.04C17.1045 85.04 17.4511 85.1067 17.7578 85.24L17.4378 86.68C17.2778 86.6267 17.1311 86.5867 16.9978 86.56C16.8645 86.5333 16.6978 86.52 16.4978 86.52C16.0845 86.52 15.6511 86.6867 15.1978 87.02C14.7578 87.3533 14.3711 87.9333 14.0378 88.76V95H12.3978ZM22.9161 95.24C22.1294 95.24 21.3894 95.04 20.6961 94.64C20.0161 94.24 19.4628 93.66 19.0361 92.9C18.6228 92.14 18.4161 91.2267 18.4161 90.16C18.4161 89.0667 18.6228 88.14 19.0361 87.38C19.4628 86.62 20.0161 86.04 20.6961 85.64C21.3894 85.24 22.1294 85.04 22.9161 85.04C23.7161 85.04 24.4561 85.24 25.1361 85.64C25.8161 86.04 26.3628 86.62 26.7761 87.38C27.2028 88.14 27.4161 89.0667 27.4161 90.16C27.4161 91.2267 27.2028 92.14 26.7761 92.9C26.3628 93.66 25.8161 94.24 25.1361 94.64C24.4561 95.04 23.7161 95.24 22.9161 95.24ZM22.9161 93.88C23.7561 93.88 24.4294 93.54 24.9361 92.86C25.4561 92.1667 25.7161 91.2667 25.7161 90.16C25.7161 89.04 25.4561 88.1333 24.9361 87.44C24.4294 86.7467 23.7561 86.4 22.9161 86.4C22.0894 86.4 21.4161 86.7467 20.8961 87.44C20.3761 88.1333 20.1161 89.04 20.1161 90.16C20.1161 91.2667 20.3761 92.1667 20.8961 92.86C21.4161 93.54 22.0894 93.88 22.9161 93.88ZM31.4378 95L28.7378 85.28H30.4178L31.8578 90.9C31.9645 91.3533 32.0645 91.8067 32.1578 92.26C32.2511 92.7 32.3445 93.1467 32.4378 93.6H32.5178C32.6245 93.1467 32.7311 92.7 32.8378 92.26C32.9445 91.8067 33.0578 91.3533 33.1778 90.9L34.6778 85.28H36.2778L37.7978 90.9C37.9178 91.3533 38.0311 91.8067 38.1378 92.26C38.2578 92.7 38.3711 93.1467 38.4778 93.6H38.5578C38.6645 93.1467 38.7645 92.7 38.8578 92.26C38.9645 91.8067 39.0645 91.3533 39.1578 90.9L40.5778 85.28H42.1378L39.5378 95H37.5378L36.1378 89.78C36.0178 89.3133 35.9045 88.8533 35.7978 88.4C35.7045 87.9467 35.5978 87.4733 35.4778 86.98H35.3978C35.2911 87.4733 35.1845 87.9533 35.0778 88.42C34.9711 88.8733 34.8511 89.3333 34.7178 89.8L33.3578 95H31.4378ZM46.7933 95.24C46.0999 95.24 45.4399 95.1133 44.8133 94.86C44.1866 94.5933 43.6399 94.2733 43.1733 93.9L43.9933 92.8C44.4199 93.1333 44.8599 93.4133 45.3133 93.64C45.7666 93.8533 46.2799 93.96 46.8533 93.96C47.4933 93.96 47.9733 93.8133 48.2933 93.52C48.6133 93.2133 48.7733 92.8533 48.7733 92.44C48.7733 92.1067 48.6599 91.8267 48.4333 91.6C48.2199 91.3733 47.9399 91.1867 47.5933 91.04C47.2599 90.88 46.9133 90.7333 46.5533 90.6C46.0999 90.4267 45.6533 90.2333 45.2133 90.02C44.7733 89.7933 44.4133 89.5067 44.1333 89.16C43.8533 88.8 43.7133 88.3467 43.7133 87.8C43.7133 87.0133 44.0066 86.36 44.5933 85.84C45.1933 85.3067 46.0199 85.04 47.0733 85.04C47.6733 85.04 48.2333 85.1467 48.7533 85.36C49.2733 85.5733 49.7199 85.8333 50.0933 86.14L49.2933 87.18C48.9599 86.9267 48.6133 86.72 48.2533 86.56C47.8933 86.4 47.4999 86.32 47.0733 86.32C46.4599 86.32 46.0066 86.46 45.7133 86.74C45.4333 87.02 45.2933 87.3467 45.2933 87.72C45.2933 88.0267 45.3933 88.28 45.5933 88.48C45.7933 88.6667 46.0533 88.8333 46.3733 88.98C46.6933 89.1133 47.0333 89.2533 47.3933 89.4C47.8599 89.5733 48.3199 89.7733 48.7733 90C49.2266 90.2133 49.5999 90.5067 49.8933 90.88C50.1999 91.24 50.3533 91.7267 50.3533 92.34C50.3533 92.86 50.2133 93.34 49.9333 93.78C49.6666 94.22 49.2666 94.5733 48.7333 94.84C48.2133 95.1067 47.5666 95.24 46.7933 95.24ZM56.5722 95.24C55.7055 95.24 54.9189 95.04 54.2122 94.64C53.5055 94.2267 52.9455 93.64 52.5322 92.88C52.1189 92.12 51.9122 91.2133 51.9122 90.16C51.9122 89.0933 52.1189 88.18 52.5322 87.42C52.9589 86.66 53.5055 86.0733 54.1722 85.66C54.8389 85.2467 55.5389 85.04 56.2722 85.04C57.5122 85.04 58.4655 85.4533 59.1322 86.28C59.8122 87.1067 60.1522 88.2133 60.1522 89.6C60.1522 89.7733 60.1455 89.9467 60.1322 90.12C60.1322 90.28 60.1189 90.42 60.0922 90.54H53.5322C53.5989 91.5667 53.9189 92.3867 54.4922 93C55.0789 93.6133 55.8389 93.92 56.7722 93.92C57.2389 93.92 57.6655 93.8533 58.0522 93.72C58.4522 93.5733 58.8322 93.3867 59.1922 93.16L59.7722 94.24C59.3589 94.5067 58.8855 94.74 58.3522 94.94C57.8322 95.14 57.2389 95.24 56.5722 95.24ZM53.5122 89.36H58.7122C58.7122 88.3733 58.4989 87.6267 58.0722 87.12C57.6589 86.6 57.0722 86.34 56.3122 86.34C55.6322 86.34 55.0189 86.6067 54.4722 87.14C53.9389 87.66 53.6189 88.4 53.5122 89.36ZM62.5541 95V85.28H63.9141L64.0541 87.04H64.1141C64.4474 86.4267 64.8541 85.94 65.3341 85.58C65.8141 85.22 66.3274 85.04 66.8741 85.04C67.2607 85.04 67.6074 85.1067 67.9141 85.24L67.5941 86.68C67.4341 86.6267 67.2874 86.5867 67.1541 86.56C67.0207 86.5333 66.8541 86.52 66.6541 86.52C66.2407 86.52 65.8074 86.6867 65.3541 87.02C64.9141 87.3533 64.5274 87.9333 64.1941 88.76V95H62.5541ZM73.2877 95.24C72.3677 95.24 71.5143 95.0667 70.7277 94.72C69.941 94.36 69.261 93.8867 68.6877 93.3L69.6877 92.14C70.1543 92.6333 70.701 93.0333 71.3277 93.34C71.9677 93.6333 72.6277 93.78 73.3077 93.78C74.1743 93.78 74.8477 93.5867 75.3277 93.2C75.8077 92.8 76.0477 92.28 76.0477 91.64C76.0477 91.1867 75.9477 90.8267 75.7477 90.56C75.561 90.2933 75.301 90.0667 74.9677 89.88C74.6477 89.6933 74.281 89.5067 73.8677 89.32L71.9877 88.5C71.5743 88.3267 71.161 88.1 70.7477 87.82C70.3477 87.54 70.0077 87.18 69.7277 86.74C69.461 86.3 69.3277 85.76 69.3277 85.12C69.3277 84.4533 69.501 83.86 69.8477 83.34C70.2077 82.8067 70.701 82.3933 71.3277 82.1C71.9543 81.7933 72.661 81.64 73.4477 81.64C74.2343 81.64 74.961 81.7933 75.6277 82.1C76.2943 82.3933 76.861 82.78 77.3277 83.26L76.4277 84.34C76.0277 83.9533 75.581 83.6533 75.0877 83.44C74.6077 83.2133 74.061 83.1 73.4477 83.1C72.7143 83.1 72.121 83.2733 71.6677 83.62C71.2277 83.9667 71.0077 84.4333 71.0077 85.02C71.0077 85.4333 71.1143 85.78 71.3277 86.06C71.5543 86.3267 71.8343 86.5467 72.1677 86.72C72.501 86.8933 72.841 87.0533 73.1877 87.2L75.0477 88C75.5543 88.2133 76.0077 88.4733 76.4077 88.78C76.821 89.0733 77.1477 89.44 77.3877 89.88C77.6277 90.3067 77.7477 90.8467 77.7477 91.5C77.7477 92.1933 77.5677 92.8267 77.2077 93.4C76.8477 93.96 76.3343 94.4067 75.6677 94.74C75.001 95.0733 74.2077 95.24 73.2877 95.24ZM82.743 95.24C81.703 95.24 80.9763 94.94 80.563 94.34C80.163 93.74 79.963 92.96 79.963 92V86.62H78.523V85.38L80.043 85.28L80.243 82.56H81.623V85.28H84.243V86.62H81.623V92.02C81.623 92.62 81.7296 93.0867 81.943 93.42C82.1696 93.74 82.563 93.9 83.123 93.9C83.2963 93.9 83.483 93.8733 83.683 93.82C83.883 93.7533 84.063 93.6933 84.223 93.64L84.543 94.88C84.2763 94.9733 83.983 95.0533 83.663 95.12C83.3563 95.2 83.0496 95.24 82.743 95.24ZM88.2511 95.24C87.4378 95.24 86.7578 95 86.2111 94.52C85.6778 94.0267 85.4111 93.3467 85.4111 92.48C85.4111 91.4133 85.8844 90.6 86.8311 90.04C87.7911 89.4667 89.3044 89.0667 91.3711 88.84C91.3711 88.4267 91.3111 88.0333 91.1911 87.66C91.0844 87.2867 90.8844 86.9867 90.5911 86.76C90.3111 86.52 89.9044 86.4 89.3711 86.4C88.8111 86.4 88.2844 86.5067 87.7911 86.72C87.2978 86.9333 86.8578 87.1733 86.4711 87.44L85.8311 86.3C86.2844 86.0067 86.8378 85.7267 87.4911 85.46C88.1578 85.18 88.8778 85.04 89.6511 85.04C90.8378 85.04 91.6978 85.4067 92.2311 86.14C92.7644 86.86 93.0311 87.8267 93.0311 89.04V95H91.6711L91.5311 93.84H91.4711C91.0178 94.2133 90.5178 94.54 89.9711 94.82C89.4378 95.1 88.8644 95.24 88.2511 95.24ZM88.7311 93.92C89.1978 93.92 89.6378 93.8067 90.0511 93.58C90.4644 93.3533 90.9044 93.0333 91.3711 92.62V89.92C89.7578 90.12 88.6244 90.42 87.9711 90.82C87.3311 91.22 87.0111 91.7333 87.0111 92.36C87.0111 92.9067 87.1778 93.3067 87.5111 93.56C87.8444 93.8 88.2511 93.92 88.7311 93.92ZM99.9292 95.24C99.0759 95.24 98.3026 95.04 97.6092 94.64C96.9159 94.24 96.3692 93.66 95.9692 92.9C95.5692 92.14 95.3692 91.2267 95.3692 90.16C95.3692 89.0667 95.5826 88.14 96.0092 87.38C96.4492 86.62 97.0226 86.04 97.7292 85.64C98.4492 85.24 99.2226 85.04 100.049 85.04C100.689 85.04 101.236 85.1533 101.689 85.38C102.156 85.6067 102.556 85.8733 102.889 86.18L102.049 87.26C101.769 87.0067 101.469 86.8 101.149 86.64C100.843 86.48 100.496 86.4 100.109 86.4C99.5226 86.4 98.9959 86.56 98.5292 86.88C98.0759 87.1867 97.7159 87.6267 97.4492 88.2C97.1959 88.76 97.0692 89.4133 97.0692 90.16C97.0692 91.2667 97.3426 92.1667 97.8892 92.86C98.4492 93.54 99.1759 93.88 100.069 93.88C100.523 93.88 100.943 93.7867 101.329 93.6C101.716 93.4 102.056 93.1667 102.349 92.9L103.069 94C102.629 94.3867 102.143 94.6933 101.609 94.92C101.076 95.1333 100.516 95.24 99.9292 95.24ZM105.21 95V80.76H106.83V90.4H106.89L111.03 85.28H112.85L109.59 89.18L113.29 95H111.49L108.65 90.32L106.83 92.44V95H105.21Z" fill="#333333"/>
</svg>
