<svg width="111" height="104" viewBox="0 0 111 104" fill="none" xmlns="http://www.w3.org/2000/svg">
<g clip-path="url(#clip0_3132_6933)">
<path fill-rule="evenodd" clip-rule="evenodd" d="M55.4494 44.6625C68.7236 62.7581 81.7144 39.6116 81.6953 25.6924C81.6727 9.23512 64.9924 0.0371246 55.4385 0.0371246C40.104 0.0371246 25.5 12.7106 25.5 30.0506C25.5 49.3241 42.24 60 55.4385 60C52.4518 59.57 42.4988 57.4372 42.3649 34.5124C42.2749 19.0072 47.4229 12.8126 55.4167 15.5377C55.5958 15.6042 64.2345 19.0119 64.2345 30.1444C64.2345 41.2294 55.4494 44.6625 55.4494 44.6625Z" fill="url(#paint0_linear_3132_6933)"/>
<path fill-rule="evenodd" clip-rule="evenodd" d="M55.4336 15.5254C46.6624 12.5022 35.9175 19.7314 35.9175 34.2113C35.9175 57.8543 53.4379 60 55.5615 60C70.896 60 85.5 47.3265 85.5 29.9865C85.5 10.713 68.76 0.0371239 55.5615 0.0371239C59.217 -0.469126 75.2644 3.99337 75.2644 25.926C75.2644 40.2289 63.282 48.0154 55.4887 44.6884C55.3097 44.622 46.671 41.2142 46.671 30.0817C46.671 18.9967 55.4336 15.525 55.4336 15.525V15.5254Z" fill="url(#paint1_linear_3132_6933)"/>
</g>
<path d="M36.24 95.24C34.6 95.24 33.3933 94.54 32.62 93.14L33.82 92.3C34.1133 92.82 34.4467 93.2 34.82 93.44C35.1933 93.6667 35.6133 93.78 36.08 93.78C36.7867 93.78 37.3133 93.5667 37.66 93.14C38.0067 92.7 38.18 91.98 38.18 90.98V81.88H39.86V91.14C39.86 91.8867 39.7333 92.5733 39.48 93.2C39.24 93.8267 38.8533 94.3267 38.32 94.7C37.7867 95.06 37.0933 95.24 36.24 95.24ZM47.0494 95.24C46.1294 95.24 45.276 95.0667 44.4894 94.72C43.7027 94.36 43.0227 93.8867 42.4494 93.3L43.4494 92.14C43.916 92.6333 44.4627 93.0333 45.0894 93.34C45.7294 93.6333 46.3894 93.78 47.0694 93.78C47.936 93.78 48.6094 93.5867 49.0894 93.2C49.5694 92.8 49.8094 92.28 49.8094 91.64C49.8094 91.1867 49.7094 90.8267 49.5094 90.56C49.3227 90.2933 49.0627 90.0667 48.7294 89.88C48.4094 89.6933 48.0427 89.5067 47.6294 89.32L45.7494 88.5C45.336 88.3267 44.9227 88.1 44.5094 87.82C44.1094 87.54 43.7694 87.18 43.4894 86.74C43.2227 86.3 43.0894 85.76 43.0894 85.12C43.0894 84.4533 43.2627 83.86 43.6094 83.34C43.9694 82.8067 44.4627 82.3933 45.0894 82.1C45.716 81.7933 46.4227 81.64 47.2094 81.64C47.996 81.64 48.7227 81.7933 49.3894 82.1C50.056 82.3933 50.6227 82.78 51.0894 83.26L50.1894 84.34C49.7894 83.9533 49.3427 83.6533 48.8494 83.44C48.3694 83.2133 47.8227 83.1 47.2094 83.1C46.476 83.1 45.8827 83.2733 45.4294 83.62C44.9894 83.9667 44.7694 84.4333 44.7694 85.02C44.7694 85.4333 44.876 85.78 45.0894 86.06C45.316 86.3267 45.596 86.5467 45.9294 86.72C46.2627 86.8933 46.6027 87.0533 46.9494 87.2L48.8094 88C49.316 88.2133 49.7694 88.4733 50.1694 88.78C50.5827 89.0733 50.9094 89.44 51.1494 89.88C51.3894 90.3067 51.5094 90.8467 51.5094 91.5C51.5094 92.1933 51.3294 92.8267 50.9694 93.4C50.6094 93.96 50.096 94.4067 49.4294 94.74C48.7627 95.0733 47.9694 95.24 47.0494 95.24ZM58.933 95.24C57.8396 95.24 56.8663 94.96 56.013 94.4C55.173 93.84 54.513 93.0467 54.033 92.02C53.5663 90.9933 53.333 89.78 53.333 88.38C53.333 86.98 53.5663 85.78 54.033 84.78C54.513 83.7667 55.173 82.9933 56.013 82.46C56.8663 81.9133 57.8396 81.64 58.933 81.64C60.0396 81.64 61.013 81.9133 61.853 82.46C62.693 82.9933 63.353 83.7667 63.833 84.78C64.313 85.78 64.553 86.98 64.553 88.38C64.553 89.78 64.313 90.9933 63.833 92.02C63.353 93.0467 62.693 93.84 61.853 94.4C61.013 94.96 60.0396 95.24 58.933 95.24ZM58.933 93.78C59.7196 93.78 60.3996 93.56 60.973 93.12C61.5596 92.6667 62.013 92.04 62.333 91.24C62.653 90.4267 62.813 89.4733 62.813 88.38C62.813 86.7533 62.4596 85.4667 61.753 84.52C61.0463 83.5733 60.1063 83.1 58.933 83.1C57.7596 83.1 56.8196 83.5733 56.113 84.52C55.4063 85.4667 55.053 86.7533 55.053 88.38C55.053 89.4733 55.213 90.4267 55.533 91.24C55.853 92.04 56.3063 92.6667 56.893 93.12C57.4796 93.56 58.1596 93.78 58.933 93.78ZM67.3742 95V81.88H69.0942L73.8342 90.12L75.2542 92.84H75.3342C75.2942 92.1733 75.2476 91.4867 75.1942 90.78C75.1542 90.06 75.1342 89.3533 75.1342 88.66V81.88H76.7142V95H74.9942L70.2342 86.74L68.8142 84.04H68.7342C68.7876 84.6933 68.8342 85.3667 68.8742 86.06C68.9276 86.7533 68.9542 87.4467 68.9542 88.14V95H67.3742Z" fill="#333333"/>
<defs>
<linearGradient id="paint0_linear_3132_6933" x1="34.3735" y1="8.87364" x2="76.6372" y2="51.1508" gradientUnits="userSpaceOnUse">
<stop/>
<stop offset="1" stop-color="white"/>
</linearGradient>
<linearGradient id="paint1_linear_3132_6933" x1="76.6432" y1="51.1449" x2="34.3794" y2="8.87146" gradientUnits="userSpaceOnUse">
<stop/>
<stop offset="1" stop-color="white"/>
</linearGradient>
<clipPath id="clip0_3132_6933">
<rect width="60" height="60" fill="white" transform="translate(25.5)"/>
</clipPath>
</defs>
</svg>
