<svg width="111" height="104" viewBox="0 0 111 104" fill="none" xmlns="http://www.w3.org/2000/svg">
<path d="M38.2031 0H40.8984V2.67188H43.3828V0H46.0781V8.08594H43.3828V5.39062H40.9219V8.08594H38.2031M49.6406 2.69531H47.2617V0H54.7266V2.69531H52.3359V8.08594H49.6406M55.9102 0H58.7344L60.4688 2.84766L62.2031 0H65.0273V8.08594H62.332V4.07812L60.4453 6.98438L58.5586 4.07812V8.08594H55.9102M66.3633 0H69.0586V5.41406H72.8789V8.08594H66.3633" fill="black"/>
<path d="M38.1094 55.1953L34.2422 11.7891H76.7578L72.8906 55.1719L55.4648 60" fill="#E44D26"/>
<path d="M55.5 56.3086V15.3516H72.8789L69.5625 52.3828" fill="#F16529"/>
<path d="M42.1406 20.6602H55.5V25.9805H47.9766L48.4688 31.4297H55.5V36.7383H43.5937M43.8281 39.4102H49.1719L49.5469 43.6641L55.5 45.2578V50.8125L44.5781 47.7656" fill="#EBEBEB"/>
<path d="M68.8125 20.6602H55.4766V25.9805H68.3203M67.8398 31.4297H55.4766V36.75H62.0391L61.418 43.6641L55.4766 45.2578V50.7891L66.375 47.7656" fill="white"/>
<path d="M26.3 95V81.88H27.96V87.38H34.06V81.88H35.74V95H34.06V88.82H27.96V95H26.3ZM42.0669 95V83.28H38.1069V81.88H47.7069V83.28H43.7469V95H42.0669ZM50.0695 95V81.88H52.0695L54.5895 88.88C54.7495 89.3333 54.9029 89.7933 55.0495 90.26C55.2095 90.7133 55.3695 91.1667 55.5295 91.62H55.6095C55.7695 91.1667 55.9162 90.7133 56.0495 90.26C56.1962 89.7933 56.3495 89.3333 56.5095 88.88L58.9895 81.88H61.0095V95H59.4495V87.78C59.4495 87.1933 59.4762 86.5467 59.5295 85.84C59.5829 85.12 59.6295 84.4733 59.6695 83.9H59.5895L58.5495 86.88L56.0695 93.68H54.9695L52.4895 86.88L51.4495 83.9H51.3695C51.4095 84.4733 51.4495 85.12 51.4895 85.84C51.5429 86.5467 51.5695 87.1933 51.5695 87.78V95H50.0695ZM64.6008 95V81.88H66.2608V93.58H72.0008V95H64.6008ZM81.2113 95.24C80.1979 95.24 79.3579 95.06 78.6913 94.7C78.0246 94.34 77.4713 93.94 77.0313 93.5L77.8313 92.42C78.2179 92.7933 78.6646 93.1333 79.1712 93.44C79.6779 93.7333 80.3046 93.88 81.0513 93.88C81.8379 93.88 82.4979 93.62 83.0313 93.1C83.5779 92.5667 83.8513 91.8533 83.8513 90.96C83.8513 90.08 83.6046 89.3933 83.1113 88.9C82.6179 88.4067 81.9579 88.16 81.1313 88.16C80.6913 88.16 80.3113 88.2267 79.9913 88.36C79.6846 88.4933 79.3379 88.6867 78.9513 88.94L78.0713 88.38L78.4913 82.24H84.8713V83.66H79.9313L79.5913 87.44C79.8979 87.28 80.2046 87.1533 80.5113 87.06C80.8179 86.9667 81.1646 86.92 81.5513 86.92C82.2846 86.92 82.9446 87.0667 83.5313 87.36C84.1313 87.64 84.6113 88.0733 84.9713 88.66C85.3313 89.2467 85.5113 90 85.5113 90.92C85.5113 91.84 85.3046 92.6267 84.8913 93.28C84.4913 93.92 83.9646 94.4067 83.3113 94.74C82.6579 95.0733 81.9579 95.24 81.2113 95.24Z" fill="#333333"/>
</svg>
