<svg width="112" height="104" viewBox="0 0 112 104" fill="none" xmlns="http://www.w3.org/2000/svg">
<g clip-path="url(#clip0_3132_6859)">
<path d="M80.779 46.135L57.609 59.5222C57.1205 59.8067 56.5653 59.9565 56 59.9565C55.4347 59.9565 54.8795 59.8067 54.391 59.5222L31.221 46.135C30.2235 45.5557 29.612 44.494 29.612 43.3676V16.5933C29.612 15.4349 30.2235 14.4051 31.221 13.8258L54.391 0.438644C54.8795 0.154184 55.4347 0.00431824 56 0.00431824C56.5653 0.00431824 57.1205 0.154184 57.609 0.438644L80.779 13.8258C81.7767 14.4051 82.388 15.467 82.388 16.5933V43.3676C82.3558 44.4938 81.7444 45.5557 80.779 46.135Z" fill="#8D6748"/>
<path d="M55.9679 4.07523C55.4852 4.07523 55.0024 4.20387 54.5841 4.46136L34.5678 16.0141C33.6989 16.497 33.1841 17.43 33.1841 18.3953V41.501C33.1841 42.4986 33.6989 43.3997 34.5678 43.8826L54.5841 55.4353C55.0024 55.6928 55.485 55.8215 55.9679 55.8215C56.4503 55.8215 56.9333 55.6928 57.3516 55.4353L77.3679 43.8824C78.2369 43.3997 78.7516 42.4665 78.7516 41.5012V18.3953C78.7516 17.3979 78.2369 16.497 77.3679 16.0141L57.3516 4.46115C56.9331 4.20387 56.4505 4.07523 55.9679 4.07523ZM55.9679 5.04066C56.2895 5.04066 56.5793 5.13714 56.8688 5.29814L76.8851 16.8509C77.4322 17.1725 77.786 17.7842 77.786 18.4278V41.5334C77.786 42.177 77.4322 42.7883 76.8851 43.1101L56.869 54.6629C56.5793 54.8237 56.2897 54.9204 55.9679 54.9204C55.6495 54.9191 55.3377 54.8299 55.0667 54.6627L35.0504 43.1103C34.5033 42.7885 34.1493 42.1772 34.1493 41.5336V18.4278C34.1493 17.7842 34.5033 17.1727 35.0502 16.8507L55.0665 5.29814C55.3562 5.13714 55.678 5.04045 55.9674 5.04045L55.9679 5.04066ZM54.1174 25.1856H56.8205C56.9172 25.1856 56.9815 25.1533 57.0458 25.0889C58.6549 23.2869 58.8159 19.5217 58.8159 18.3955C58.8159 18.2347 58.6871 18.0736 58.4941 18.0736H52.444C52.2832 18.0736 52.1222 18.2023 52.1222 18.3955C52.1222 19.4895 52.2832 23.2548 53.8923 25.0889C53.9566 25.1533 54.0209 25.1856 54.1174 25.1856ZM53.3773 19.0712H57.6251C57.7859 19.0712 57.947 19.1999 57.947 19.393C57.947 20.2942 57.7859 22.8363 56.6919 24.1557C56.5954 24.2202 56.5311 24.2524 56.4344 24.2524H54.5359C54.4392 24.2524 54.3749 24.2202 54.3106 24.1557C53.2163 22.8686 53.0876 20.2942 53.0555 19.393C53.0555 19.2322 53.1841 19.0712 53.3773 19.0712ZM56.0804 17.4302C56.0804 17.4302 57.239 16.7542 56.5309 15.5315C56.1126 14.8877 55.9196 14.3408 56.0804 14.1154C55.6621 14.6304 54.9542 15.1774 55.7264 16.336C55.9841 16.6256 56.1126 17.2369 56.0804 17.43V17.4302ZM54.7932 17.5265C54.7932 17.5265 55.5654 17.0761 55.0828 16.2393C54.7932 15.821 54.6645 15.4348 54.7932 15.306C54.5035 15.66 54.0531 16.0139 54.5678 16.8186C54.7289 16.9794 54.7932 17.3979 54.7932 17.5265ZM54.6967 23.8662H56.3057C56.3701 23.8662 56.4344 23.8341 56.4987 23.7697C57.0458 23.1261 57.3033 22.1285 57.432 21.2596C57.432 21.2596 57.3998 21.5492 56.6276 21.8389C55.5658 22.225 53.6991 21.9675 53.6991 21.9675C53.8599 22.6433 54.1176 23.2869 54.5035 23.7697C54.5357 23.8341 54.6324 23.8662 54.6967 23.8662ZM42.5968 32.9089V26.4729H41.4062L39.4432 29.4978L37.4802 26.4729H36.2894V32.941H37.4156V28.3392L39.4108 31.332H39.443L41.4705 28.307V32.9089H42.5968ZM49.8054 26.6015C49.3869 26.4407 48.9365 26.344 48.4539 26.344C47.9711 26.344 47.5206 26.4083 47.1021 26.6017C46.6836 26.7625 46.3298 27.0198 46.0402 27.3094C45.736 27.6129 45.4954 27.9739 45.3323 28.3714C45.1714 28.7899 45.0746 29.2079 45.0746 29.6586V29.6908C45.0746 30.1412 45.1714 30.5919 45.3323 30.978C45.4931 31.3965 45.7184 31.7503 46.008 32.0399C46.2977 32.3296 46.6517 32.587 47.0697 32.7479C47.4882 32.9089 47.9389 33.0055 48.4215 33.0055C48.9043 33.0055 49.3548 32.941 49.7733 32.7479C50.1916 32.587 50.5455 32.3296 50.835 32.0399C51.1392 31.7366 51.3799 31.3756 51.5431 30.9782C51.7039 30.5597 51.8006 30.1412 51.8006 29.6908V29.6586C51.8006 29.2079 51.7037 28.7577 51.5429 28.3714C51.3821 27.9531 51.157 27.5991 50.8673 27.3097C50.5777 27.0198 50.2237 26.7623 49.8054 26.6015ZM50.5777 29.7229C50.5777 30.0126 50.5134 30.3022 50.4167 30.5919C50.288 30.8492 50.1594 31.1066 49.9662 31.2998C49.7686 31.4962 49.5403 31.6592 49.2905 31.7824C49.0328 31.9113 48.7433 31.9756 48.4215 31.9756C48.1321 31.9756 47.8102 31.9113 47.5528 31.7824C47.3029 31.6592 47.0747 31.4963 46.877 31.3C46.6838 31.0745 46.523 30.8492 46.4263 30.5599C46.3298 30.2701 46.2655 29.9806 46.2655 29.6586V29.6264C46.2655 29.3368 46.3298 29.0471 46.4263 28.7575C46.5552 28.5 46.6838 28.2427 46.877 28.0495C47.0746 27.8531 47.3029 27.6901 47.5528 27.5667C47.8102 27.4381 48.0997 27.3738 48.4215 27.3738C48.7431 27.3738 49.033 27.4381 49.2905 27.5667C49.5403 27.6901 49.7686 27.8531 49.9662 28.0495C50.1594 28.2749 50.3202 28.5 50.4167 28.7896C50.5134 29.0793 50.5775 29.3689 50.5775 29.6908V29.7229H50.5777ZM55.3403 28.7575C55.469 28.5 55.5978 28.2425 55.7908 28.0495C55.9885 27.8532 56.2167 27.6902 56.4665 27.5667C56.724 27.4381 56.9815 27.3738 57.3033 27.3738C57.6895 27.3738 58.0113 27.4381 58.3009 27.5989C58.5906 27.7599 58.8481 27.9531 59.1053 28.1782L59.8457 27.3416C59.6846 27.1808 59.5238 27.052 59.3628 26.9231C59.202 26.7945 59.0089 26.698 58.8159 26.6015C58.5906 26.537 58.3974 26.4727 58.1399 26.4083C57.8826 26.3762 57.6251 26.344 57.3355 26.344C56.8205 26.344 56.4022 26.4405 55.9839 26.6013C55.5656 26.7623 55.2117 27.0198 54.922 27.3094C54.638 27.6224 54.4094 27.9815 54.2462 28.3714C54.0776 28.7796 53.9901 29.2169 53.9888 29.6586V29.6908C53.9888 30.1412 54.0852 30.5595 54.2462 30.978C54.407 31.3965 54.6324 31.7503 54.922 32.0399C55.2117 32.3296 55.5656 32.587 55.9518 32.7479C56.3591 32.9197 56.7969 33.0073 57.239 33.0055C57.5287 33.0055 57.8181 33.0055 58.1078 32.941C58.3331 32.9089 58.5906 32.8122 58.7835 32.7157C58.9767 32.6192 59.1699 32.5225 59.3628 32.3617C59.556 32.2009 59.7168 32.0721 59.8778 31.8789L59.1377 31.1388C58.8481 31.3965 58.5584 31.5895 58.3009 31.7503C58.0434 31.9113 57.6895 31.9756 57.3033 31.9756C57.0137 31.9756 56.724 31.8789 56.4665 31.7824C56.2093 31.6859 55.9839 31.4928 55.7908 31.3C55.5978 31.0745 55.4368 30.8492 55.3403 30.5595C55.2438 30.2701 55.1793 29.9804 55.1793 29.6586V29.6264C55.1793 29.3368 55.2438 29.0471 55.3403 28.7575ZM62.1305 26.4729V32.9089H63.2567V30.2057H66.3462V32.9089H67.4724V26.4727H66.3462V29.1438H63.2567V26.4727H62.1305V26.4729ZM74.4877 31.3643L75.1313 32.9091H76.3219L73.4901 26.4407H72.4601L69.6284 32.9089H70.787L71.4626 31.3641H74.4877V31.3643ZM72.9751 27.7923L74.0692 30.3667H71.8811L72.9751 27.7923ZM35.485 35.29H76.515V34.936H35.485V35.29ZM59.0734 22.8361C59.0734 22.9647 59.041 23.0614 59.041 23.1902H76.515V22.8361H59.0732H59.0734ZM51.8971 22.8361H35.485V23.1902H51.9293C51.9293 23.0616 51.8969 22.9649 51.8969 22.8361H51.8971Z" fill="white"/>
</g>
<path d="M29.8 95V81.88H31.8L34.32 88.88C34.48 89.3333 34.6333 89.7933 34.78 90.26C34.94 90.7133 35.1 91.1667 35.26 91.62H35.34C35.5 91.1667 35.6467 90.7133 35.78 90.26C35.9267 89.7933 36.08 89.3333 36.24 88.88L38.72 81.88H40.74V95H39.18V87.78C39.18 87.1933 39.2067 86.5467 39.26 85.84C39.3133 85.12 39.36 84.4733 39.4 83.9H39.32L38.28 86.88L35.8 93.68H34.7L32.22 86.88L31.18 83.9H31.1C31.14 84.4733 31.18 85.12 31.22 85.84C31.2733 86.5467 31.3 87.1933 31.3 87.78V95H29.8ZM47.9513 95.24C47.1646 95.24 46.4246 95.04 45.7313 94.64C45.0513 94.24 44.4979 93.66 44.0713 92.9C43.6579 92.14 43.4513 91.2267 43.4513 90.16C43.4513 89.0667 43.6579 88.14 44.0713 87.38C44.4979 86.62 45.0513 86.04 45.7313 85.64C46.4246 85.24 47.1646 85.04 47.9513 85.04C48.7513 85.04 49.4913 85.24 50.1713 85.64C50.8513 86.04 51.3979 86.62 51.8113 87.38C52.2379 88.14 52.4513 89.0667 52.4513 90.16C52.4513 91.2267 52.2379 92.14 51.8113 92.9C51.3979 93.66 50.8513 94.24 50.1713 94.64C49.4913 95.04 48.7513 95.24 47.9513 95.24ZM47.9513 93.88C48.7913 93.88 49.4646 93.54 49.9713 92.86C50.4913 92.1667 50.7513 91.2667 50.7513 90.16C50.7513 89.04 50.4913 88.1333 49.9713 87.44C49.4646 86.7467 48.7913 86.4 47.9513 86.4C47.1246 86.4 46.4513 86.7467 45.9313 87.44C45.4113 88.1333 45.1513 89.04 45.1513 90.16C45.1513 91.2667 45.4113 92.1667 45.9313 92.86C46.4513 93.54 47.1246 93.88 47.9513 93.88ZM58.8511 95.24C57.9978 95.24 57.2244 95.04 56.5311 94.64C55.8378 94.24 55.2911 93.66 54.8911 92.9C54.4911 92.14 54.2911 91.2267 54.2911 90.16C54.2911 89.0667 54.5044 88.14 54.9311 87.38C55.3711 86.62 55.9444 86.04 56.6511 85.64C57.3711 85.24 58.1444 85.04 58.9711 85.04C59.6111 85.04 60.1578 85.1533 60.6111 85.38C61.0778 85.6067 61.4778 85.8733 61.8111 86.18L60.9711 87.26C60.6911 87.0067 60.3911 86.8 60.0711 86.64C59.7644 86.48 59.4178 86.4 59.0311 86.4C58.4444 86.4 57.9178 86.56 57.4511 86.88C56.9978 87.1867 56.6378 87.6267 56.3711 88.2C56.1178 88.76 55.9911 89.4133 55.9911 90.16C55.9911 91.2667 56.2644 92.1667 56.8111 92.86C57.3711 93.54 58.0978 93.88 58.9911 93.88C59.4444 93.88 59.8644 93.7867 60.2511 93.6C60.6378 93.4 60.9778 93.1667 61.2711 92.9L61.9911 94C61.5511 94.3867 61.0644 94.6933 60.5311 94.92C59.9978 95.1333 59.4378 95.24 58.8511 95.24ZM64.1322 95V80.76H65.7722V84.64L65.7122 86.64C66.1789 86.2 66.6655 85.8267 67.1722 85.52C67.6922 85.2 68.2855 85.04 68.9522 85.04C69.9789 85.04 70.7255 85.3667 71.1922 86.02C71.6722 86.66 71.9122 87.6 71.9122 88.84V95H70.2722V89.06C70.2722 88.1533 70.1255 87.4933 69.8322 87.08C69.5389 86.6667 69.0722 86.46 68.4322 86.46C67.9389 86.46 67.4922 86.5867 67.0922 86.84C66.7055 87.0933 66.2655 87.4667 65.7722 87.96V95H64.1322ZM77.2511 95.24C76.4378 95.24 75.7578 95 75.2111 94.52C74.6778 94.0267 74.4111 93.3467 74.4111 92.48C74.4111 91.4133 74.8844 90.6 75.8311 90.04C76.7911 89.4667 78.3044 89.0667 80.3711 88.84C80.3711 88.4267 80.3111 88.0333 80.1911 87.66C80.0844 87.2867 79.8844 86.9867 79.5911 86.76C79.3111 86.52 78.9044 86.4 78.3711 86.4C77.8111 86.4 77.2844 86.5067 76.7911 86.72C76.2978 86.9333 75.8578 87.1733 75.4711 87.44L74.8311 86.3C75.2844 86.0067 75.8378 85.7267 76.4911 85.46C77.1578 85.18 77.8778 85.04 78.6511 85.04C79.8378 85.04 80.6978 85.4067 81.2311 86.14C81.7644 86.86 82.0311 87.8267 82.0311 89.04V95H80.6711L80.5311 93.84H80.4711C80.0178 94.2133 79.5178 94.54 78.9711 94.82C78.4378 95.1 77.8644 95.24 77.2511 95.24ZM77.7311 93.92C78.1978 93.92 78.6378 93.8067 79.0511 93.58C79.4644 93.3533 79.9044 93.0333 80.3711 92.62V89.92C78.7578 90.12 77.6244 90.42 76.9711 90.82C76.3311 91.22 76.0111 91.7333 76.0111 92.36C76.0111 92.9067 76.1778 93.3067 76.5111 93.56C76.8444 93.8 77.2511 93.92 77.7311 93.92Z" fill="#333333"/>
<defs>
<clipPath id="clip0_3132_6859">
<rect width="52.776" height="60" fill="white" transform="translate(29.612)"/>
</clipPath>
</defs>
</svg>
