<svg width="111" height="104" viewBox="0 0 111 104" fill="none" xmlns="http://www.w3.org/2000/svg">
<g clip-path="url(#clip0_3132_6798)">
<path fill-rule="evenodd" clip-rule="evenodd" d="M47.4987 0C44.182 0.00244648 41.4977 2.68868 41.5002 5.99878C41.4977 9.30887 44.1844 11.9951 47.5011 11.9976H53.5021V6.00122C53.5046 2.69113 50.8179 0.00489297 47.4987 0C47.5012 0 47.5012 0 47.4987 0M47.4987 16H31.501C28.1843 16.0024 25.4976 18.6887 25.5 21.9988C25.4951 25.3089 28.1818 27.9951 31.4985 28H47.4987C50.8154 27.9976 53.5021 25.3113 53.4997 22.0012C53.5021 18.6887 50.8154 16.0024 47.4987 16V16Z" fill="#36C5F0"/>
<path fill-rule="evenodd" clip-rule="evenodd" d="M85.5 21.9988C85.5025 18.6887 82.8158 16.0024 79.4991 16C76.1823 16.0024 73.4956 18.6887 73.4981 21.9988V28H79.4991C82.8158 27.9976 85.5025 25.3113 85.5 21.9988ZM69.4999 21.9988V5.99878C69.5023 2.69113 66.8181 0.00489297 63.5014 0C60.1846 0.00244648 57.4979 2.68868 57.5004 5.99878V21.9988C57.4955 25.3089 60.1822 27.9951 63.4989 28C66.8156 27.9976 69.5023 25.3113 69.4999 21.9988Z" fill="#2EB67D"/>
<path fill-rule="evenodd" clip-rule="evenodd" d="M63.4989 60C66.8156 59.9976 69.5023 57.3113 69.4999 54.0012C69.5023 50.6911 66.8156 48.0049 63.4989 48.0024H57.4979V54.0012C57.4955 57.3089 60.1822 59.9951 63.4989 60ZM63.4989 43.9976H79.4991C82.8158 43.9951 85.5025 41.3089 85.5001 37.9988C85.505 34.6887 82.8182 32.0024 79.5015 31.9976H63.5014C60.1846 32 57.4979 34.6862 57.5004 37.9963C57.4979 41.3089 60.1822 43.9951 63.4989 43.9976V43.9976Z" fill="#ECB22E"/>
<path fill-rule="evenodd" clip-rule="evenodd" d="M25.5001 37.9988C25.4977 41.3089 28.1844 43.9951 31.5011 43.9976C34.8178 43.9951 37.5045 41.3089 37.5021 37.9988V32H31.5011C28.1844 32.0024 25.4977 34.6887 25.5001 37.9988ZM41.5003 37.9988V53.9988C41.4954 57.3089 44.1821 59.9951 47.4988 60C50.8155 59.9976 53.5022 57.3113 53.4998 54.0012V38.0037C53.5047 34.6936 50.818 32.0073 47.5013 32.0024C44.1821 32.0024 41.4978 34.6887 41.5003 37.9988C41.5003 38.0012 41.5003 37.9988 41.5003 37.9988Z" fill="#E01E5A"/>
</g>
<path d="M38.44 95.24C37.52 95.24 36.6667 95.0667 35.88 94.72C35.0933 94.36 34.4133 93.8867 33.84 93.3L34.84 92.14C35.3067 92.6333 35.8533 93.0333 36.48 93.34C37.12 93.6333 37.78 93.78 38.46 93.78C39.3267 93.78 40 93.5867 40.48 93.2C40.96 92.8 41.2 92.28 41.2 91.64C41.2 91.1867 41.1 90.8267 40.9 90.56C40.7133 90.2933 40.4533 90.0667 40.12 89.88C39.8 89.6933 39.4333 89.5067 39.02 89.32L37.14 88.5C36.7267 88.3267 36.3133 88.1 35.9 87.82C35.5 87.54 35.16 87.18 34.88 86.74C34.6133 86.3 34.48 85.76 34.48 85.12C34.48 84.4533 34.6533 83.86 35 83.34C35.36 82.8067 35.8533 82.3933 36.48 82.1C37.1067 81.7933 37.8133 81.64 38.6 81.64C39.3867 81.64 40.1133 81.7933 40.78 82.1C41.4467 82.3933 42.0133 82.78 42.48 83.26L41.58 84.34C41.18 83.9533 40.7333 83.6533 40.24 83.44C39.76 83.2133 39.2133 83.1 38.6 83.1C37.8667 83.1 37.2733 83.2733 36.82 83.62C36.38 83.9667 36.16 84.4333 36.16 85.02C36.16 85.4333 36.2667 85.78 36.48 86.06C36.7067 86.3267 36.9867 86.5467 37.32 86.72C37.6533 86.8933 37.9933 87.0533 38.34 87.2L40.2 88C40.7067 88.2133 41.16 88.4733 41.56 88.78C41.9733 89.0733 42.3 89.44 42.54 89.88C42.78 90.3067 42.9 90.8467 42.9 91.5C42.9 92.1933 42.72 92.8267 42.36 93.4C42 93.96 41.4867 94.4067 40.82 94.74C40.1533 95.0733 39.36 95.24 38.44 95.24ZM47.0636 95.24C46.4503 95.24 46.0036 95.0533 45.7236 94.68C45.4569 94.2933 45.3236 93.7467 45.3236 93.04V80.76H46.9636V93.16C46.9636 93.4133 47.0103 93.6 47.1036 93.72C47.1969 93.8267 47.3036 93.88 47.4236 93.88C47.4769 93.88 47.5236 93.88 47.5636 93.88C47.6169 93.8667 47.6903 93.8533 47.7836 93.84L48.0036 95.08C47.8969 95.1333 47.7703 95.1733 47.6236 95.2C47.4769 95.2267 47.2903 95.24 47.0636 95.24ZM52.6613 95.24C51.8479 95.24 51.1679 95 50.6213 94.52C50.0879 94.0267 49.8213 93.3467 49.8213 92.48C49.8213 91.4133 50.2946 90.6 51.2413 90.04C52.2013 89.4667 53.7146 89.0667 55.7813 88.84C55.7813 88.4267 55.7213 88.0333 55.6013 87.66C55.4946 87.2867 55.2946 86.9867 55.0013 86.76C54.7213 86.52 54.3146 86.4 53.7812 86.4C53.2213 86.4 52.6946 86.5067 52.2013 86.72C51.7079 86.9333 51.2679 87.1733 50.8813 87.44L50.2413 86.3C50.6946 86.0067 51.2479 85.7267 51.9013 85.46C52.5679 85.18 53.2879 85.04 54.0612 85.04C55.2479 85.04 56.1079 85.4067 56.6413 86.14C57.1746 86.86 57.4413 87.8267 57.4413 89.04V95H56.0813L55.9413 93.84H55.8813C55.4279 94.2133 54.9279 94.54 54.3813 94.82C53.8479 95.1 53.2746 95.24 52.6613 95.24ZM53.1413 93.92C53.6079 93.92 54.0479 93.8067 54.4613 93.58C54.8746 93.3533 55.3146 93.0333 55.7813 92.62V89.92C54.1679 90.12 53.0346 90.42 52.3813 90.82C51.7413 91.22 51.4212 91.7333 51.4212 92.36C51.4212 92.9067 51.5879 93.3067 51.9213 93.56C52.2546 93.8 52.6613 93.92 53.1413 93.92ZM64.3394 95.24C63.486 95.24 62.7127 95.04 62.0194 94.64C61.326 94.24 60.7794 93.66 60.3794 92.9C59.9794 92.14 59.7794 91.2267 59.7794 90.16C59.7794 89.0667 59.9927 88.14 60.4194 87.38C60.8594 86.62 61.4327 86.04 62.1394 85.64C62.8594 85.24 63.6327 85.04 64.4594 85.04C65.0994 85.04 65.646 85.1533 66.0994 85.38C66.566 85.6067 66.966 85.8733 67.2994 86.18L66.4594 87.26C66.1794 87.0067 65.8794 86.8 65.5594 86.64C65.2527 86.48 64.906 86.4 64.5194 86.4C63.9327 86.4 63.406 86.56 62.9394 86.88C62.486 87.1867 62.126 87.6267 61.8594 88.2C61.606 88.76 61.4794 89.4133 61.4794 90.16C61.4794 91.2667 61.7527 92.1667 62.2994 92.86C62.8594 93.54 63.586 93.88 64.4794 93.88C64.9327 93.88 65.3527 93.7867 65.7394 93.6C66.126 93.4 66.466 93.1667 66.7594 92.9L67.4794 94C67.0394 94.3867 66.5527 94.6933 66.0194 94.92C65.486 95.1333 64.926 95.24 64.3394 95.24ZM69.6205 95V80.76H71.2405V90.4H71.3005L75.4405 85.28H77.2605L74.0005 89.18L77.7005 95H75.9005L73.0605 90.32L71.2405 92.44V95H69.6205Z" fill="#333333"/>
<defs>
<clipPath id="clip0_3132_6798">
<rect width="60" height="60" fill="white" transform="translate(25.5)"/>
</clipPath>
</defs>
</svg>
