<svg width="112" height="104" viewBox="0 0 112 104" fill="none" xmlns="http://www.w3.org/2000/svg">
<g clip-path="url(#clip0_3132_6209)">
<path d="M60.0286 41.0571L54.8 11.9143C54.4571 9.85713 53.7714 7.79999 52.4857 5.82856C50.7714 3.0857 48.0286 1.19999 44.9429 0.428558C32.7714 -2.48573 23.7714 9.6857 29.0857 20.4857L41.7714 47.6571C42.1143 48.5143 42.6286 49.3714 43.2286 50.1428C44.2571 51.5143 45.6286 52.5428 47.2571 53.0571C55.4857 55.6286 62.0857 48.3428 60.0286 41.0571Z" fill="url(#paint0_linear_3132_6209)"/>
<path d="M83.7713 22.7143C82.5713 20.8286 80.857 19.3714 78.8856 18.5143L47.857 1.45714C46.9999 1.02856 46.057 0.599993 45.0285 0.34285C31.7428 -2.74286 22.2285 11.8286 30.7142 23.1428C31.9999 24.8571 33.7999 26.2286 35.857 27L67.1428 41.0571C67.8285 41.4857 68.5142 41.7429 69.2856 42C81.2856 45.7714 90.3713 33.0857 83.7713 22.7143Z" fill="url(#paint1_linear_3132_6209)"/>
<path d="M83.7714 22.7143C82.2285 20.3143 79.8285 18.6 77 17.9143C74 17.2286 71.1714 17.4857 68.7714 18.5143L35.7714 30.9428C35.7714 30.9428 35.6 31.0286 35.2571 31.2857C26.7714 34.6286 22.5714 45.6857 29.4285 54.8571C30.9714 56.9143 33.1143 58.4571 35.5142 59.1429C40.0571 60.5143 44.1714 60 47.5142 58.2H47.6L79.8285 40.9714C79.8285 40.9714 79.8285 40.9714 79.9143 40.8857C85.5714 37.6286 88.2285 29.6571 83.7714 22.7143Z" fill="url(#paint2_linear_3132_6209)"/>
<path d="M69.1142 10.9714C70.1428 8.65714 70.0571 5.82857 68.3428 3.25714C67.4 1.71428 65.8571 0.685708 64.1428 0.257137C60.2857 -0.68572 57.0285 1.11428 55.4857 3.85714L29 36C29 36 29 36 29 36.0857C25.2285 41.0571 24.6285 48.4286 29.4285 54.8571C30.9714 56.9143 33.1142 58.4571 35.5142 59.1429C44.5142 61.9714 52.0571 57 54.4571 49.8857L69.1142 10.9714Z" fill="url(#paint3_linear_3132_6209)"/>
<path d="M74.5143 11.4857H37.4857V48.5143H74.5143V11.4857Z" fill="black"/>
<path d="M54.8857 41.5714H41V43.8857H54.8857V41.5714Z" fill="white"/>
<path d="M45.6286 19.4571H41V16.3714H53.6857V19.4571H48.9714V31.7143H45.6286V19.4571Z" fill="white"/>
<path d="M53.8572 24.0857C53.8572 19.7143 57.1143 16.1143 61.8286 16.1143C64.7429 16.1143 66.4572 17.0571 67.9143 18.5143L65.7715 21C64.5715 19.8857 63.3715 19.2857 61.8286 19.2857C59.2572 19.2857 57.3715 21.4286 57.3715 24.0857V24C57.3715 26.6571 59.1715 28.8 61.8286 28.8C63.5429 28.8 64.6572 28.1143 65.8572 27L68 29.1428C66.4572 30.8571 64.6572 31.8857 61.7429 31.8857C57.2 31.9714 53.8572 28.4571 53.8572 24.0857Z" fill="white"/>
</g>
<path d="M19.02 95V83.28H15.06V81.88H24.66V83.28H20.7V95H19.02ZM29.4745 95.24C28.6079 95.24 27.8212 95.04 27.1145 94.64C26.4079 94.2267 25.8479 93.64 25.4345 92.88C25.0212 92.12 24.8145 91.2133 24.8145 90.16C24.8145 89.0933 25.0212 88.18 25.4345 87.42C25.8612 86.66 26.4079 86.0733 27.0745 85.66C27.7412 85.2467 28.4412 85.04 29.1745 85.04C30.4145 85.04 31.3679 85.4533 32.0345 86.28C32.7145 87.1067 33.0545 88.2133 33.0545 89.6C33.0545 89.7733 33.0479 89.9467 33.0345 90.12C33.0345 90.28 33.0212 90.42 32.9945 90.54H26.4345C26.5012 91.5667 26.8212 92.3867 27.3945 93C27.9812 93.6133 28.7412 93.92 29.6745 93.92C30.1412 93.92 30.5679 93.8533 30.9545 93.72C31.3545 93.5733 31.7345 93.3867 32.0945 93.16L32.6745 94.24C32.2612 94.5067 31.7879 94.74 31.2545 94.94C30.7345 95.14 30.1412 95.24 29.4745 95.24ZM26.4145 89.36H31.6145C31.6145 88.3733 31.4012 87.6267 30.9745 87.12C30.5612 86.6 29.9745 86.34 29.2145 86.34C28.5345 86.34 27.9212 86.6067 27.3745 87.14C26.8412 87.66 26.5212 88.4 26.4145 89.36ZM37.423 95.24C36.6096 95.24 35.9296 95 35.383 94.52C34.8496 94.0267 34.583 93.3467 34.583 92.48C34.583 91.4133 35.0563 90.6 36.003 90.04C36.963 89.4667 38.4763 89.0667 40.543 88.84C40.543 88.4267 40.483 88.0333 40.363 87.66C40.2563 87.2867 40.0563 86.9867 39.763 86.76C39.483 86.52 39.0763 86.4 38.543 86.4C37.983 86.4 37.4563 86.5067 36.963 86.72C36.4696 86.9333 36.0296 87.1733 35.643 87.44L35.003 86.3C35.4563 86.0067 36.0096 85.7267 36.663 85.46C37.3296 85.18 38.0496 85.04 38.823 85.04C40.0096 85.04 40.8696 85.4067 41.403 86.14C41.9363 86.86 42.203 87.8267 42.203 89.04V95H40.843L40.703 93.84H40.643C40.1896 94.2133 39.6896 94.54 39.143 94.82C38.6096 95.1 38.0363 95.24 37.423 95.24ZM37.903 93.92C38.3696 93.92 38.8096 93.8067 39.223 93.58C39.6363 93.3533 40.0763 93.0333 40.543 92.62V89.92C38.9296 90.12 37.7963 90.42 37.143 90.82C36.503 91.22 36.183 91.7333 36.183 92.36C36.183 92.9067 36.3496 93.3067 36.683 93.56C37.0163 93.8 37.423 93.92 37.903 93.92ZM45.2611 95V85.28H46.6211L46.7611 86.68H46.8211C47.2478 86.2133 47.7144 85.8267 48.2211 85.52C48.7278 85.2 49.2678 85.04 49.8411 85.04C50.5878 85.04 51.1678 85.2067 51.5811 85.54C52.0078 85.86 52.3211 86.3133 52.5211 86.9C53.0278 86.3533 53.5411 85.9067 54.0611 85.56C54.5811 85.2133 55.1344 85.04 55.7211 85.04C56.7211 85.04 57.4611 85.3667 57.9411 86.02C58.4344 86.66 58.6811 87.6 58.6811 88.84V95H57.0411V89.06C57.0411 88.1533 56.8944 87.4933 56.6011 87.08C56.3078 86.6667 55.8544 86.46 55.2411 86.46C54.5211 86.46 53.7078 86.96 52.8011 87.96V95H51.1611V89.06C51.1611 88.1533 51.0144 87.4933 50.7211 87.08C50.4278 86.6667 49.9678 86.46 49.3411 86.46C48.6211 86.46 47.8078 86.96 46.9011 87.96V95H45.2611ZM70.967 95.24C69.8737 95.24 68.8937 94.9733 68.027 94.44C67.1737 93.8933 66.4937 93.1133 65.987 92.1C65.4937 91.0867 65.247 89.8667 65.247 88.44C65.247 87.0267 65.5004 85.8133 66.007 84.8C66.5137 83.7867 67.207 83.0067 68.087 82.46C68.967 81.9133 69.9604 81.64 71.067 81.64C71.867 81.64 72.5737 81.8067 73.187 82.14C73.8004 82.46 74.2937 82.8333 74.667 83.26L73.767 84.34C73.4204 83.9667 73.027 83.6667 72.587 83.44C72.147 83.2133 71.647 83.1 71.087 83.1C70.2604 83.1 69.5337 83.32 68.907 83.76C68.2937 84.1867 67.8137 84.7933 67.467 85.58C67.1337 86.3667 66.967 87.3067 66.967 88.4C66.967 89.4933 67.1337 90.4467 67.467 91.26C67.8004 92.06 68.267 92.68 68.867 93.12C69.4804 93.56 70.2004 93.78 71.027 93.78C71.6537 93.78 72.2137 93.6467 72.707 93.38C73.2004 93.1133 73.6537 92.7533 74.067 92.3L74.987 93.34C74.467 93.94 73.8804 94.4067 73.227 94.74C72.5737 95.0733 71.8204 95.24 70.967 95.24ZM77.2728 95V85.28H78.9128V95H77.2728ZM78.1128 83.28C77.7928 83.28 77.5261 83.1867 77.3128 83C77.1128 82.8 77.0128 82.5333 77.0128 82.2C77.0128 81.88 77.1128 81.62 77.3128 81.42C77.5261 81.22 77.7928 81.12 78.1128 81.12C78.4328 81.12 78.6928 81.22 78.8928 81.42C79.1061 81.62 79.2128 81.88 79.2128 82.2C79.2128 82.5333 79.1061 82.8 78.8928 83C78.6928 83.1867 78.4328 83.28 78.1128 83.28ZM85.2547 95.24C84.2147 95.24 83.488 94.94 83.0747 94.34C82.6747 93.74 82.4747 92.96 82.4747 92V86.62H81.0347V85.38L82.5547 85.28L82.7547 82.56H84.1347V85.28H86.7547V86.62H84.1347V92.02C84.1347 92.62 84.2414 93.0867 84.4547 93.42C84.6814 93.74 85.0747 93.9 85.6347 93.9C85.808 93.9 85.9947 93.8733 86.1947 93.82C86.3947 93.7533 86.5747 93.6933 86.7347 93.64L87.0547 94.88C86.788 94.9733 86.4947 95.0533 86.1747 95.12C85.868 95.2 85.5614 95.24 85.2547 95.24ZM89.1125 99.18C88.8992 99.18 88.6925 99.16 88.4925 99.12C88.3058 99.08 88.1325 99.0333 87.9725 98.98L88.2925 97.68C88.3992 97.7067 88.5192 97.7333 88.6525 97.76C88.7858 97.8 88.9125 97.82 89.0325 97.82C89.5792 97.82 90.0325 97.62 90.3925 97.22C90.7525 96.8333 91.0325 96.34 91.2325 95.74L91.4525 95.02L87.5525 85.28H89.2525L91.2325 90.66C91.3792 91.0733 91.5325 91.52 91.6925 92C91.8658 92.48 92.0258 92.9467 92.1725 93.4H92.2525C92.3992 92.96 92.5392 92.5 92.6725 92.02C92.8058 91.54 92.9392 91.0867 93.0725 90.66L94.8125 85.28H96.4125L92.7525 95.8C92.5258 96.44 92.2525 97.0133 91.9325 97.52C91.6258 98.0267 91.2392 98.4267 90.7725 98.72C90.3192 99.0267 89.7658 99.18 89.1125 99.18Z" fill="#333333"/>
<defs>
<linearGradient id="paint0_linear_3132_6209" x1="27.5204" y1="26.8053" x2="60.4282" y2="26.8053" gradientUnits="userSpaceOnUse">
<stop stop-color="#905CFB"/>
<stop offset="0.0677254" stop-color="#776CF9"/>
<stop offset="0.1729" stop-color="#5681F7"/>
<stop offset="0.2865" stop-color="#3B92F5"/>
<stop offset="0.4097" stop-color="#269FF4"/>
<stop offset="0.5474" stop-color="#17A9F3"/>
<stop offset="0.7111" stop-color="#0FAEF2"/>
<stop offset="0.9677" stop-color="#0CB0F2"/>
</linearGradient>
<linearGradient id="paint1_linear_3132_6209" x1="30.5524" y1="8.28779" x2="85.338" y2="37.5998" gradientUnits="userSpaceOnUse">
<stop stop-color="#905CFB"/>
<stop offset="0.0677254" stop-color="#776CF9"/>
<stop offset="0.1729" stop-color="#5681F7"/>
<stop offset="0.2865" stop-color="#3B92F5"/>
<stop offset="0.4097" stop-color="#269FF4"/>
<stop offset="0.5474" stop-color="#17A9F3"/>
<stop offset="0.7111" stop-color="#0FAEF2"/>
<stop offset="0.9677" stop-color="#0CB0F2"/>
</linearGradient>
<linearGradient id="paint2_linear_3132_6209" x1="9.47116" y1="60.7027" x2="73.9857" y2="28.4454" gradientUnits="userSpaceOnUse">
<stop stop-color="#3BEA62"/>
<stop offset="0.117" stop-color="#31DE80"/>
<stop offset="0.3025" stop-color="#24CEA8"/>
<stop offset="0.4844" stop-color="#1AC1C9"/>
<stop offset="0.6592" stop-color="#12B7DF"/>
<stop offset="0.8238" stop-color="#0EB2ED"/>
<stop offset="0.9677" stop-color="#0CB0F2"/>
</linearGradient>
<linearGradient id="paint3_linear_3132_6209" x1="59.3804" y1="5.01454" x2="30.6484" y2="66.4365" gradientUnits="userSpaceOnUse">
<stop stop-color="#3BEA62"/>
<stop offset="0.0939775" stop-color="#2FDB87"/>
<stop offset="0.196" stop-color="#24CEA8"/>
<stop offset="0.3063" stop-color="#1BC3C3"/>
<stop offset="0.4259" stop-color="#14BAD8"/>
<stop offset="0.5596" stop-color="#10B5E7"/>
<stop offset="0.7185" stop-color="#0DB1EF"/>
<stop offset="0.9677" stop-color="#0CB0F2"/>
</linearGradient>
<clipPath id="clip0_3132_6209">
<rect width="60" height="60" fill="white" transform="translate(26)"/>
</clipPath>
</defs>
</svg>
