<svg width="631" height="338" viewBox="0 0 631 338" fill="none" xmlns="http://www.w3.org/2000/svg">
<path d="M213.813 257.023L99.3083 0.392822H522.975L405.32 257.023H213.813Z" fill="url(#paint0_linear_644_56972)"/>
<path d="M213.813 91.4067L99.3083 336.1H522.975L405.32 91.4067H213.813Z" fill="url(#paint1_linear_644_56972)"/>
<path d="M221.302 263.935C221.559 268.026 224.959 271.264 229.114 271.264H388.227C392.383 271.264 395.782 268.026 396.04 263.935H221.302Z" fill="#322C27" stroke="#914618"/>
<path d="M296.687 264.129H321.454C321.454 265.279 320.522 266.211 319.372 266.211H298.769C297.619 266.211 296.687 265.279 296.687 264.129Z" fill="#914618"/>
<rect x="212.596" y="91.9082" width="194.8" height="166.105" rx="4.58185" fill="#1B1614" stroke="#914618" stroke-width="1.0025"/>
<path d="M252.23 232.475L249.656 230.235L263.744 217.968L240.532 197.77L243.118 195.53L268.904 217.968L252.23 232.475Z" fill="white"/>
<path d="M365.011 216.379H266.311V219.556H365.011V216.379Z" fill="white"/>
<path d="M274.65 119.546C274.609 119.227 274.662 118.903 274.805 118.607C274.948 118.311 275.176 118.051 275.466 117.853C275.757 117.655 276.101 117.525 276.466 117.475C276.831 117.425 277.204 117.458 277.55 117.569L298.032 124.141L277.475 141.403L274.65 119.546Z" fill="#914618"/>
<path d="M347.079 119.547C347.121 119.228 347.069 118.904 346.927 118.608C346.785 118.311 346.558 118.051 346.267 117.853C345.977 117.655 345.633 117.525 345.268 117.475C344.904 117.425 344.53 117.458 344.184 117.57L323.697 124.142L344.26 141.404L347.079 119.547Z" fill="#914618"/>
<path d="M311.107 214.319C338.415 214.319 360.552 197.78 360.552 177.379C360.552 156.977 338.415 140.439 311.107 140.439C283.8 140.439 261.663 156.977 261.663 177.379C261.663 197.78 283.8 214.319 311.107 214.319Z" fill="#794422"/>
<path d="M352.02 167.275C352.02 194.823 333.703 217.157 311.12 217.157C288.537 217.157 270.22 194.823 270.22 167.275C270.22 139.728 288.537 117.383 311.12 117.383C333.703 117.383 352.02 139.739 352.02 167.275Z" fill="#914618"/>
<path d="M294.589 169.241C305.126 169.241 313.667 160.771 313.667 150.324C313.667 139.877 305.126 131.408 294.589 131.408C284.052 131.408 275.511 139.877 275.511 150.324C275.511 160.771 284.052 169.241 294.589 169.241Z" fill="white"/>
<path d="M339.604 187.911C339.604 200.655 326.843 210.989 311.106 210.989C295.369 210.989 282.64 200.682 282.64 187.911C282.64 175.139 295.394 164.821 311.131 164.821C326.868 164.821 339.604 175.156 339.604 187.911Z" fill="white"/>
<path d="M346.344 150.298C346.344 160.747 337.799 169.214 327.259 169.214C316.72 169.214 308.187 160.769 308.187 150.298C308.187 139.826 316.726 131.376 327.259 131.376C337.792 131.376 346.344 139.892 346.344 150.298Z" fill="white"/>
<path d="M309.54 156.765C310.596 156.407 311.77 156.416 312.818 156.792C315.843 157.811 318.526 159.473 320.62 161.628C320.947 161.984 321.138 162.419 321.167 162.873C321.197 163.328 321.063 163.779 320.784 164.164C318.613 167.097 315.84 169.657 312.604 171.716C312.201 171.982 311.71 172.126 311.204 172.126C310.698 172.126 310.207 171.982 309.804 171.716C306.565 169.66 303.792 167.099 301.624 164.164C301.343 163.784 301.208 163.337 301.239 162.886C301.269 162.435 301.464 162.004 301.794 161.656C303.821 159.446 306.497 157.756 309.54 156.765Z" fill="#FF7F2B"/>
<path d="M309.206 176.208C309.206 177.088 308.804 177.932 308.089 178.554C307.374 179.177 306.404 179.526 305.393 179.526C304.382 179.526 303.412 179.177 302.697 178.554C301.982 177.932 301.58 177.088 301.58 176.208H309.206Z" fill="#DDDDDD"/>
<path d="M320.79 176.208C320.79 177.088 320.388 177.932 319.673 178.554C318.958 179.177 317.988 179.526 316.977 179.526C315.966 179.526 314.996 179.177 314.281 178.554C313.566 177.932 313.164 177.088 313.164 176.208H320.79Z" fill="#DDDDDD"/>
<path d="M303.405 182.823C303.405 183.703 303.003 184.548 302.288 185.17C301.573 185.792 300.603 186.142 299.591 186.142C298.58 186.142 297.61 185.792 296.895 185.17C296.18 184.548 295.778 183.703 295.778 182.823H303.405Z" fill="#DDDDDD"/>
<path d="M315.008 182.823C315.008 183.703 314.606 184.548 313.891 185.17C313.176 185.792 312.206 186.142 311.195 186.142C310.183 186.142 309.214 185.792 308.498 185.17C307.783 184.548 307.382 183.703 307.382 182.823H315.008Z" fill="#DDDDDD"/>
<path d="M326.585 182.823C326.585 183.703 326.184 184.548 325.468 185.17C324.753 185.792 323.783 186.142 322.772 186.142C321.761 186.142 320.791 185.792 320.076 185.17C319.361 184.548 318.959 183.703 318.959 182.823H326.585Z" fill="#DDDDDD"/>
<path d="M297.628 189.301C297.628 190.181 297.226 191.025 296.511 191.648C295.796 192.27 294.826 192.62 293.815 192.62C292.803 192.62 291.833 192.27 291.118 191.648C290.403 191.025 290.001 190.181 290.001 189.301H297.628Z" fill="#DDDDDD"/>
<path d="M309.206 189.301C309.206 190.181 308.804 191.025 308.089 191.648C307.374 192.27 306.404 192.62 305.393 192.62C304.382 192.62 303.412 192.27 302.697 191.648C301.982 191.025 301.58 190.181 301.58 189.301H309.206Z" fill="#DDDDDD"/>
<path d="M320.79 189.301C320.79 190.181 320.388 191.025 319.673 191.648C318.958 192.27 317.988 192.62 316.977 192.62C315.966 192.62 314.996 192.27 314.281 191.648C313.566 191.025 313.164 190.181 313.164 189.301H320.79Z" fill="#DDDDDD"/>
<path d="M332.388 189.301C332.348 190.159 331.928 190.97 331.217 191.564C330.506 192.158 329.558 192.49 328.572 192.49C327.585 192.49 326.637 192.158 325.926 191.564C325.215 190.97 324.795 190.159 324.755 189.301H332.388Z" fill="#DDDDDD"/>
<path d="M303.405 195.918C303.405 196.798 303.003 197.642 302.288 198.265C301.573 198.887 300.603 199.237 299.591 199.237C298.58 199.237 297.61 198.887 296.895 198.265C296.18 197.642 295.778 196.798 295.778 195.918H303.405Z" fill="#DDDDDD"/>
<path d="M315.008 195.918C315.008 196.798 314.606 197.642 313.891 198.265C313.176 198.887 312.206 199.237 311.195 199.237C310.183 199.237 309.214 198.887 308.498 198.265C307.783 197.642 307.382 196.798 307.382 195.918H315.008Z" fill="#DDDDDD"/>
<path d="M326.585 195.918C326.585 196.798 326.184 197.642 325.468 198.265C324.753 198.887 323.783 199.237 322.772 199.237C321.761 199.237 320.791 198.887 320.076 198.265C319.361 197.642 318.959 196.798 318.959 195.918H326.585Z" fill="#DDDDDD"/>
<path d="M309.206 202.392C309.206 203.272 308.804 204.116 308.089 204.738C307.374 205.361 306.404 205.71 305.393 205.71C304.382 205.71 303.412 205.361 302.697 204.738C301.982 204.116 301.58 203.272 301.58 202.392H309.206Z" fill="#DDDDDD"/>
<path d="M320.79 202.392C320.79 203.272 320.388 204.116 319.673 204.738C318.958 205.361 317.988 205.71 316.977 205.71C315.966 205.71 314.996 205.361 314.281 204.738C313.566 204.116 313.164 203.272 313.164 202.392H320.79Z" fill="#DDDDDD"/>
<path d="M297.081 157.854C303.211 157.854 308.18 153.529 308.18 148.193C308.18 142.858 303.211 138.532 297.081 138.532C290.951 138.532 285.981 142.858 285.981 148.193C285.981 153.529 290.951 157.854 297.081 157.854Z" fill="#CED8E1"/>
<path d="M297.082 154.25C300.918 154.25 304.028 151.543 304.028 148.204C304.028 144.865 300.918 142.158 297.082 142.158C293.245 142.158 290.135 144.865 290.135 148.204C290.135 151.543 293.245 154.25 297.082 154.25Z" fill="#333333"/>
<path d="M298.837 148.205C300.258 148.205 301.411 147.202 301.411 145.965C301.411 144.728 300.258 143.725 298.837 143.725C297.416 143.725 296.264 144.728 296.264 145.965C296.264 147.202 297.416 148.205 298.837 148.205Z" fill="white"/>
<path d="M324.245 157.872C330.379 157.872 335.351 153.544 335.351 148.206C335.351 142.867 330.379 138.539 324.245 138.539C318.111 138.539 313.139 142.867 313.139 148.206C313.139 153.544 318.111 157.872 324.245 157.872Z" fill="#CED8E1"/>
<path d="M324.245 154.25C328.081 154.25 331.191 151.543 331.191 148.204C331.191 144.865 328.081 142.158 324.245 142.158C320.408 142.158 317.298 144.865 317.298 148.204C317.298 151.543 320.408 154.25 324.245 154.25Z" fill="#333333"/>
<path d="M325.987 148.205C327.409 148.205 328.561 147.202 328.561 145.965C328.561 144.728 327.409 143.725 325.987 143.725C324.566 143.725 323.414 144.728 323.414 145.965C323.414 147.202 324.566 148.205 325.987 148.205Z" fill="white"/>
<path d="M334.144 217.191C334.144 219.743 332.526 221.802 330.538 221.802C328.55 221.802 326.933 219.743 326.933 217.191C326.933 219.743 325.315 221.802 323.321 221.802C321.326 221.802 319.715 219.743 319.715 217.191C319.715 219.743 318.105 221.802 316.11 221.802C314.115 221.802 312.504 219.743 312.504 217.191C312.504 213.593 317.331 210.674 323.289 210.674C329.248 210.674 334.081 213.593 334.081 217.191H334.144Z" fill="#FF7F2B"/>
<path d="M309.546 217.191C309.546 219.743 307.929 221.802 305.941 221.802C303.952 221.802 302.329 219.743 302.329 217.191C302.329 219.743 300.718 221.802 298.723 221.802C296.729 221.802 295.118 219.743 295.118 217.191C295.118 219.743 293.501 221.802 291.512 221.802C289.524 221.802 287.907 219.743 287.907 217.191C287.907 213.593 292.733 210.674 298.692 210.674C304.651 210.674 309.483 213.593 309.483 217.191H309.546Z" fill="#FF7F2B"/>
<ellipse cx="495.494" cy="226.436" rx="1.71757" ry="2.23805" fill="#6A6057"/>
<ellipse cx="137.381" cy="236.88" rx="2.57635" ry="2.23805" fill="#6A6057"/>
<ellipse cx="525.551" cy="87.6768" rx="2.57635" ry="2.23805" fill="#6A6057"/>
<rect x="538.934" y="44.1631" width="76.288" height="66.1391" rx="4.58185" fill="#322C27" stroke="#AD824F" stroke-width="1.0025"/>
<rect x="4.77075" y="44.1631" width="76.288" height="66.1391" rx="4.58185" fill="#322C27" stroke="#AD824F" stroke-width="1.0025"/>
<path fill-rule="evenodd" clip-rule="evenodd" d="M60.9922 57.1633L49.9688 69.9465C49.9555 69.9623 49.9383 69.9754 49.9185 69.9849C49.8987 69.9944 49.8768 70.0001 49.8543 70.0015C49.8318 70.0029 49.8092 70 49.788 69.9931C49.7669 69.9862 49.7477 69.9754 49.7318 69.9614L45.0532 65.8773C45.0377 65.8635 45.019 65.8528 44.9984 65.8459C44.9778 65.8389 44.9557 65.8358 44.9337 65.8368C44.9116 65.8378 44.89 65.8428 44.8703 65.8516C44.8507 65.8604 44.8334 65.8727 44.8196 65.8877L42.1539 68.7311C42.1298 68.7566 42.1173 68.7889 42.1185 68.8219C42.1198 68.8549 42.1348 68.8864 42.1608 68.9105L49.7421 75.9322C49.757 75.9461 49.7751 75.9571 49.7952 75.9646C49.8153 75.972 49.837 75.9758 49.8588 75.9755C49.8807 75.9752 49.9022 75.9709 49.9221 75.9629C49.9419 75.955 49.9596 75.9435 49.974 75.9292L64.3844 61.7438V96.0315H21.4452V57.1633H60.9922ZM33.2741 92.031C38.468 92.031 40.9774 89.7139 40.9774 86.6403C40.9774 82.8372 36.9377 82.0061 33.7636 81.3513C31.6854 80.9237 29.9266 80.5709 29.9266 79.4871C29.9266 78.4795 30.9073 77.7993 32.6678 77.7993C34.6293 77.7993 36.7075 78.3794 38.2671 79.6381L40.5446 77.019C38.6398 75.4822 36.1012 74.6764 33.0422 74.6764C28.513 74.6764 25.7426 76.9936 25.7426 79.7891C25.7426 83.6176 29.7823 84.374 32.9272 85.0034C35.0329 85.4564 36.8226 85.8106 36.8226 87.044C36.8226 88.0007 35.7268 88.9066 33.4751 88.9066C32.3323 88.9096 31.2008 88.7102 30.1493 88.3206C29.0979 87.931 28.1484 87.3593 27.3588 86.6403L25.1363 89.3611C26.926 90.9472 29.5796 92.031 33.2741 92.031ZM50.211 92.031C52.3752 92.031 54.5685 91.451 55.9528 90.3418L54.3383 88.2788C53.4435 89.0337 51.7981 89.4867 50.6146 89.4867C48.2496 89.4867 46.836 88.201 46.6041 86.6657H56.9628V85.9601C56.9628 81.9806 54.1357 79.2614 49.9809 79.2614C45.7385 79.2614 42.7671 82.1062 42.7671 85.6327C42.7671 89.5375 45.9703 92.031 50.211 92.031ZM53.4143 84.4996H46.5475C46.7192 83.2902 47.7017 81.8042 49.9809 81.8042C52.4044 81.8042 53.3284 83.341 53.416 84.4996H53.4143Z" fill="#90C258"/>
<rect x="4.77075" y="226.191" width="76.288" height="66.1391" rx="4.58185" fill="#322C27" stroke="#AD824F" stroke-width="1.0025"/>
<path d="M577.754 58.5823V97.3296" stroke="#90C258" stroke-width="2.005"/>
<path d="M596.108 58.5823V97.3296" stroke="#90C258" stroke-width="2.005"/>
<path d="M559.398 58.5823V97.3296" stroke="#90C258" stroke-width="2.005"/>
<rect x="553.891" y="67.5117" width="11.3805" height="3.8269" fill="#90C258"/>
<rect x="572.247" y="86.3274" width="11.3805" height="3.8269" fill="#90C258"/>
<rect x="590.602" y="71.3384" width="11.3805" height="3.8269" fill="#90C258"/>
<rect x="538.934" y="226.191" width="76.288" height="66.1391" rx="4.58185" fill="#322C27" stroke="#AD824F" stroke-width="1.0025"/>
<path d="M582.108 257.911H593.886C594.666 257.91 595.415 257.64 595.967 257.16C596.519 256.679 596.829 256.028 596.83 255.348V245.097C596.829 244.418 596.519 243.767 595.967 243.286C595.415 242.806 594.666 242.535 593.886 242.535H582.108C581.328 242.535 580.579 242.806 580.027 243.286C579.475 243.767 579.165 244.418 579.164 245.097H565.914C565.133 245.098 564.385 245.368 563.833 245.849C563.281 246.329 562.97 246.981 562.97 247.66V252.786H558.553C557.772 252.786 557.024 253.057 556.472 253.537C555.92 254.018 555.609 254.669 555.609 255.348V265.599C555.609 266.279 555.92 266.93 556.472 267.411C557.024 267.891 557.772 268.161 558.553 268.162H561.497V273.287C561.498 273.967 561.809 274.618 562.361 275.099C562.913 275.579 563.661 275.849 564.442 275.85H579.164C579.165 276.53 579.475 277.181 580.027 277.661C580.579 278.142 581.328 278.412 582.108 278.413H593.886C594.666 278.412 595.415 278.142 595.967 277.661C596.519 277.181 596.829 276.53 596.83 275.85V265.599C596.829 264.92 596.519 264.268 595.967 263.788C595.415 263.308 594.666 263.037 593.886 263.037H582.108C581.328 263.037 580.579 263.308 580.027 263.788C579.475 264.268 579.165 264.92 579.164 265.599V273.287H564.442V268.162H570.331C571.111 268.161 571.86 267.891 572.412 267.411C572.964 266.93 573.274 266.279 573.275 265.599V255.348C573.274 254.669 572.964 254.018 572.412 253.537C571.86 253.057 571.111 252.786 570.331 252.786H565.914V247.66H579.164V255.348C579.165 256.028 579.475 256.679 580.027 257.16C580.579 257.64 581.328 257.91 582.108 257.911ZM582.108 275.85V270.725H593.886V275.85H582.108ZM593.886 265.599V268.162H582.108V265.599H593.886ZM558.553 265.599V260.474H570.331V265.599H558.553ZM570.331 257.911H558.553V255.348H570.331L570.331 257.911ZM582.108 255.348V250.223H593.886V255.348H582.108ZM593.886 245.097V247.66H582.108V245.097H593.886Z" fill="#90C258"/>
<path d="M49.6356 259.852L35.9001 247.897C35.5808 247.619 35.2016 247.398 34.7843 247.247C34.367 247.097 33.9197 247.019 33.468 247.019C33.0162 247.019 32.5689 247.097 32.1516 247.247C31.7343 247.398 31.3552 247.619 31.0359 247.897L17.3003 259.852C16.9808 260.13 16.7273 260.46 16.5543 260.823C16.3813 261.186 16.2923 261.575 16.2923 261.969C16.2923 262.362 16.3813 262.751 16.5543 263.114C16.7273 263.478 16.9808 263.808 17.3003 264.085L22.9537 269.006L19.7274 271.814L22.1563 273.928L25.3825 271.12L31.0359 276.04C31.3552 276.319 31.7343 276.539 32.1516 276.69C32.5689 276.84 33.0162 276.918 33.468 276.918C33.9197 276.918 34.367 276.84 34.7843 276.69C35.2016 276.539 35.5808 276.319 35.9001 276.04L39.7747 272.668L37.3433 270.552L33.4645 273.927L19.7292 261.972L33.4645 250.011L47.2068 261.972L44.6322 264.211L47.0618 266.326L49.6356 264.085C49.9552 263.808 50.2087 263.478 50.3817 263.114C50.5546 262.751 50.6437 262.362 50.6437 261.969C50.6437 261.575 50.5546 261.186 50.3817 260.823C50.2087 260.46 49.9552 260.13 49.6356 259.852Z" fill="#90C258"/>
<path d="M66.8111 259.852L61.1578 254.931L64.384 252.123L61.9552 250.009L58.729 252.817L53.0756 247.897C52.7563 247.619 52.3772 247.398 51.9599 247.247C51.5426 247.097 51.0952 247.019 50.6435 247.019C50.1918 247.019 49.7445 247.097 49.3272 247.247C48.9098 247.398 48.5307 247.619 48.2114 247.897L44.3368 251.269L46.7664 253.384L50.6401 250.011L64.3823 261.972L50.6401 273.927L36.9047 261.972L39.481 259.728L37.0497 257.611L34.4759 259.852C34.1563 260.13 33.9028 260.46 33.7298 260.823C33.5568 261.186 33.4678 261.575 33.4678 261.969C33.4678 262.362 33.5568 262.751 33.7298 263.114C33.9028 263.478 34.1563 263.808 34.4759 264.085L48.2114 276.04C48.5307 276.319 48.9098 276.539 49.3272 276.69C49.7445 276.84 50.1918 276.918 50.6435 276.918C51.0952 276.918 51.5426 276.84 51.9599 276.69C52.3772 276.539 52.7563 276.319 53.0756 276.04L66.8111 264.085C67.1307 263.808 67.3842 263.478 67.5572 263.114C67.7302 262.751 67.8192 262.362 67.8192 261.969C67.8192 261.575 67.7302 261.186 67.5572 260.823C67.3842 260.46 67.1307 260.13 66.8111 259.852Z" fill="#90C258"/>
<path d="M81.5605 260.007L120.31 260.007C124.521 260.007 127.935 256.593 127.935 252.382L127.935 176.617C127.935 172.406 131.348 168.992 135.559 168.992L194.061 168.992" stroke="#914618" stroke-width="1.0025" stroke-dasharray="2.54 2.54"/>
<path d="M211.237 168.992L206.224 171.886L206.224 166.098L211.237 168.992ZM127.935 161.368L128.436 161.368L127.935 161.368ZM127.935 85.603L128.436 85.603L127.935 85.603ZM207.453 169.494L204.93 169.494L204.93 168.491L207.453 168.491L207.453 169.494ZM202.408 169.494L199.885 169.494L199.885 168.491L202.408 168.491L202.408 169.494ZM197.363 169.494L194.84 169.494L194.84 168.491L197.363 168.491L197.363 169.494ZM192.318 169.494L189.795 169.494L189.795 168.491L192.318 168.491L192.318 169.494ZM187.272 169.494L184.75 169.494L184.75 168.491L187.272 168.491L187.272 169.494ZM182.227 169.494L179.705 169.494L179.705 168.491L182.227 168.491L182.227 169.494ZM177.182 169.494L174.659 169.494L174.659 168.491L177.182 168.491L177.182 169.494ZM172.137 169.494L169.614 169.494L169.614 168.491L172.137 168.491L172.137 169.494ZM167.092 169.494L164.569 169.494L164.569 168.491L167.092 168.491L167.092 169.494ZM162.047 169.494L159.524 169.494L159.524 168.491L162.047 168.491L162.047 169.494ZM157.001 169.494L154.479 169.494L154.479 168.491L157.001 168.491L157.001 169.494ZM151.956 169.494L149.434 169.494L149.434 168.491L151.956 168.491L151.956 169.494ZM146.911 169.494L144.389 169.494L144.389 168.491L146.911 168.491L146.911 169.494ZM141.866 169.494L139.343 169.494L139.343 168.491L141.866 168.491L141.866 169.494ZM136.821 169.494L135.56 169.494L135.56 168.491L136.821 168.491L136.821 169.494ZM135.56 169.494C135.017 169.494 134.487 169.44 133.974 169.339L134.169 168.356C134.618 168.444 135.083 168.491 135.56 168.491L135.56 169.494ZM131.044 168.125C130.158 167.532 129.396 166.769 128.803 165.883L129.636 165.325C130.156 166.102 130.825 166.771 131.602 167.292L131.044 168.125ZM127.588 162.953C127.487 162.44 127.434 161.91 127.434 161.368L128.436 161.368C128.436 161.844 128.483 162.309 128.572 162.759L127.588 162.953ZM127.434 161.368L127.434 160.105L128.436 160.105L128.436 161.368L127.434 161.368ZM127.434 157.579L127.434 155.054L128.436 155.054L128.436 157.579L127.434 157.579ZM127.434 152.529L127.434 150.003L128.436 150.003L128.436 152.529L127.434 152.529ZM127.434 147.478L127.434 144.952L128.436 144.952L128.436 147.478L127.434 147.478ZM127.434 142.427L127.434 139.901L128.436 139.901L128.436 142.427L127.434 142.427ZM127.434 137.376L127.434 134.85L128.436 134.85L128.436 137.376L127.434 137.376ZM127.434 132.325L127.434 129.799L128.436 129.799L128.436 132.325L127.434 132.325ZM127.434 127.274L127.434 124.748L128.436 124.748L128.436 127.274L127.434 127.274ZM127.434 122.223L127.434 119.697L128.436 119.697L128.436 122.223L127.434 122.223ZM127.434 117.172L127.434 114.646L128.436 114.646L128.436 117.172L127.434 117.172ZM127.434 112.121L127.434 109.595L128.436 109.595L128.436 112.121L127.434 112.121ZM127.434 107.07L127.434 104.544L128.436 104.544L128.436 107.07L127.434 107.07ZM127.434 102.019L127.434 99.4932L128.436 99.4932L128.436 102.019L127.434 102.019ZM127.434 96.9677L127.434 94.4422L128.436 94.4422L128.436 96.9677L127.434 96.9677ZM127.434 91.9167L127.434 89.3912L128.436 89.3912L128.436 91.9167L127.434 91.9167ZM127.434 86.8657L127.434 85.603L128.436 85.603L128.436 86.8657L127.434 86.8657ZM127.434 85.603C127.434 85.1266 127.387 84.6616 127.298 84.2122L128.281 84.0176C128.383 84.5308 128.436 85.0609 128.436 85.603L127.434 85.603ZM126.234 81.6454C125.714 80.8684 125.045 80.1993 124.268 79.6791L124.825 78.846C125.711 79.4392 126.474 80.2018 127.067 81.0877L126.234 81.6454ZM121.701 78.6152C121.252 78.5263 120.787 78.4796 120.31 78.4796L120.31 77.4771C120.852 77.4771 121.382 77.5302 121.896 77.6317L121.701 78.6152ZM120.31 78.4796L119.099 78.4796L119.099 77.4771L120.31 77.4771L120.31 78.4796ZM116.677 78.4796L114.256 78.4796L114.256 77.4771L116.677 77.4771L116.677 78.4796ZM111.834 78.4796L109.412 78.4796L109.412 77.4771L111.834 77.4771L111.834 78.4796ZM106.99 78.4796L104.568 78.4796L104.568 77.4771L106.99 77.4771L106.99 78.4796ZM102.146 78.4796L99.7245 78.4796L99.7245 77.4771L102.146 77.4771L102.146 78.4796ZM97.3026 78.4796L94.8808 78.4796L94.8808 77.4771L97.3026 77.4771L97.3026 78.4796ZM92.4589 78.4796L90.0371 78.4796L90.0371 77.4771L92.4589 77.4771L92.4589 78.4796ZM87.6152 78.4796L85.1934 78.4796L85.1934 77.4771L87.6152 77.4771L87.6152 78.4796ZM82.7715 78.4796L81.5606 78.4796L81.5606 77.4771L82.7715 77.4771L82.7715 78.4796Z" fill="#914618"/>
<path d="M146.907 168.992L133.348 173.351L133.13 173.421L133.04 173.632L127.935 185.618L122.829 173.632L122.739 173.421L122.521 173.351L108.962 168.992L122.521 164.634L122.739 164.564L122.829 164.353L127.935 152.367L133.04 164.353L133.13 164.564L133.348 164.634L146.907 168.992Z" fill="#322C27" stroke="#914618" stroke-width="1.0025"/>
<path d="M132.652 169.576V171.695H122.906V169.576H132.652ZM128.921 165.592V175.943H126.646V165.592H128.921Z" fill="white"/>
<path d="M538.434 260.007L499.684 260.007C495.473 260.007 492.06 256.593 492.06 252.382L492.06 176.617C492.06 172.406 488.646 168.992 484.435 168.992L407.899 168.992" stroke="#914618" stroke-width="1.0025" stroke-dasharray="2.54 2.54"/>
<path d="M407.899 168.992L412.911 171.886L412.911 166.098L407.899 168.992ZM492.06 161.368L492.561 161.368L492.06 161.368ZM492.06 85.603L491.558 85.603L492.06 85.603ZM411.726 169.494L414.277 169.494L414.277 168.491L411.726 168.491L411.726 169.494ZM416.828 169.494L419.379 169.494L419.379 168.491L416.828 168.491L416.828 169.494ZM421.93 169.494L424.482 169.494L424.482 168.491L421.93 168.491L421.93 169.494ZM427.033 169.494L429.584 169.494L429.584 168.491L427.033 168.491L427.033 169.494ZM432.135 169.494L434.687 169.494L434.687 168.491L432.135 168.491L432.135 169.494ZM437.238 169.494L439.789 169.494L439.789 168.491L437.238 168.491L437.238 169.494ZM442.34 169.494L444.891 169.494L444.891 168.491L442.34 168.491L442.34 169.494ZM447.443 169.494L449.994 169.494L449.994 168.491L447.443 168.491L447.443 169.494ZM452.545 169.494L455.096 169.494L455.096 168.491L452.545 168.491L452.545 169.494ZM457.647 169.494L460.199 169.494L460.199 168.491L457.647 168.491L457.647 169.494ZM462.75 169.494L465.301 169.494L465.301 168.491L462.75 168.491L462.75 169.494ZM467.852 169.494L470.403 169.494L470.403 168.491L467.852 168.491L467.852 169.494ZM472.955 169.494L475.506 169.494L475.506 168.491L472.955 168.491L472.955 169.494ZM478.057 169.494L480.608 169.494L480.608 168.491L478.057 168.491L478.057 169.494ZM483.159 169.494L484.435 169.494L484.435 168.491L483.159 168.491L483.159 169.494ZM484.435 169.494C484.977 169.494 485.507 169.441 486.02 169.339L485.826 168.356C485.376 168.444 484.911 168.491 484.435 168.491L484.435 169.494ZM488.95 168.125C489.836 167.532 490.599 166.769 491.192 165.883L490.359 165.325C489.839 166.102 489.17 166.771 488.393 167.292L488.95 168.125ZM492.406 162.953C492.508 162.44 492.561 161.91 492.561 161.368L491.558 161.368C491.558 161.844 491.512 162.309 491.423 162.759L492.406 162.953ZM492.561 161.368L492.561 160.105L491.558 160.105L491.558 161.368L492.561 161.368ZM492.561 157.58L492.561 155.054L491.558 155.054L491.558 157.58L492.561 157.58ZM492.561 152.529L492.561 150.003L491.558 150.003L491.558 152.529L492.561 152.529ZM492.561 147.478L492.561 144.952L491.558 144.952L491.558 147.478L492.561 147.478ZM492.561 142.427L492.561 139.901L491.558 139.901L491.558 142.427L492.561 142.427ZM492.561 137.376L492.561 134.85L491.558 134.85L491.558 137.376L492.561 137.376ZM492.561 132.325L492.561 129.799L491.558 129.799L491.558 132.325L492.561 132.325ZM492.561 127.274L492.561 124.748L491.558 124.748L491.558 127.274L492.561 127.274ZM492.561 122.223L492.561 119.697L491.558 119.697L491.558 122.223L492.561 122.223ZM492.561 117.172L492.561 114.646L491.558 114.646L491.558 117.172L492.561 117.172ZM492.561 112.121L492.561 109.595L491.558 109.595L491.558 112.121L492.561 112.121ZM492.561 107.07L492.561 104.544L491.558 104.544L491.558 107.07L492.561 107.07ZM492.561 102.019L492.561 99.4932L491.558 99.4932L491.558 102.019L492.561 102.019ZM492.561 96.9677L492.561 94.4422L491.558 94.4422L491.558 96.9677L492.561 96.9677ZM492.561 91.9167L492.561 89.3912L491.558 89.3912L491.558 91.9167L492.561 91.9167ZM492.561 86.8657L492.561 85.603L491.558 85.603L491.558 86.8657L492.561 86.8657ZM492.561 85.603C492.561 85.1266 492.608 84.6616 492.697 84.2122L491.713 84.0176C491.612 84.5308 491.558 85.0609 491.558 85.603L492.561 85.603ZM493.76 81.6454C494.281 80.8684 494.95 80.1993 495.727 79.6791L495.169 78.846C494.283 79.4392 493.52 80.2018 492.927 81.0877L493.76 81.6454ZM498.294 78.6152C498.743 78.5263 499.208 78.4796 499.684 78.4796L499.684 77.4771C499.142 77.4771 498.612 77.5302 498.099 77.6317L498.294 78.6152ZM499.684 78.4796L500.895 78.4796L500.895 77.4771L499.684 77.4771L499.684 78.4796ZM503.317 78.4796L505.739 78.4796L505.739 77.4771L503.317 77.4771L503.317 78.4796ZM508.161 78.4796L510.583 78.4796L510.583 77.4771L508.161 77.4771L508.161 78.4796ZM513.005 78.4796L515.426 78.4796L515.426 77.4771L513.005 77.4771L513.005 78.4796ZM517.848 78.4796L520.27 78.4796L520.27 77.4771L517.848 77.4771L517.848 78.4796ZM522.692 78.4796L525.114 78.4796L525.114 77.4771L522.692 77.4771L522.692 78.4796ZM527.536 78.4796L529.957 78.4796L529.957 77.4771L527.536 77.4771L527.536 78.4796ZM532.379 78.4796L534.801 78.4796L534.801 77.4771L532.379 77.4771L532.379 78.4796ZM537.223 78.4796L538.434 78.4796L538.434 77.4771L537.223 77.4771L537.223 78.4796Z" fill="#914618"/>
<path d="M473.087 168.993L486.646 173.351L486.864 173.421L486.954 173.632L492.06 185.618L497.165 173.632L497.255 173.421L497.473 173.351L511.032 168.993L497.473 164.634L497.255 164.564L497.165 164.353L492.06 152.367L486.954 164.353L486.864 164.564L486.646 164.634L473.087 168.993Z" fill="#322C27" stroke="#914618" stroke-width="1.0025"/>
<path d="M487.342 169.767V171.886H497.089V169.767H487.342ZM491.073 165.783V176.134H493.348V165.783H491.073Z" fill="white"/>
<path d="M7.00736 135.266C6.27136 135.266 5.58869 135.127 4.95936 134.85C4.33003 134.562 3.78603 134.183 3.32736 133.714L4.12736 132.786C4.50069 133.181 4.93803 133.501 5.43936 133.746C5.95136 133.981 6.47936 134.098 7.02336 134.098C7.71669 134.098 8.25536 133.943 8.63936 133.634C9.02336 133.314 9.21536 132.898 9.21536 132.386C9.21536 132.023 9.13536 131.735 8.97536 131.522C8.82603 131.309 8.61803 131.127 8.35136 130.978C8.09536 130.829 7.80203 130.679 7.47136 130.53L5.96736 129.874C5.63669 129.735 5.30603 129.554 4.97536 129.33C4.65536 129.106 4.38336 128.818 4.15936 128.466C3.94603 128.114 3.83936 127.682 3.83936 127.17C3.83936 126.637 3.97803 126.162 4.25536 125.746C4.54336 125.319 4.93803 124.989 5.43936 124.754C5.94069 124.509 6.50603 124.386 7.13536 124.386C7.76469 124.386 8.34603 124.509 8.87936 124.754C9.41269 124.989 9.86603 125.298 10.2394 125.682L9.51936 126.546C9.19936 126.237 8.84203 125.997 8.44736 125.826C8.06336 125.645 7.62603 125.554 7.13536 125.554C6.54869 125.554 6.07403 125.693 5.71136 125.97C5.35936 126.247 5.18336 126.621 5.18336 127.09C5.18336 127.421 5.26869 127.698 5.43936 127.922C5.62069 128.135 5.84469 128.311 6.11136 128.45C6.37803 128.589 6.65003 128.717 6.92736 128.834L8.41536 129.474C8.82069 129.645 9.18336 129.853 9.50336 130.098C9.83403 130.333 10.0954 130.626 10.2874 130.978C10.4794 131.319 10.5754 131.751 10.5754 132.274C10.5754 132.829 10.4314 133.335 10.1434 133.794C9.85536 134.242 9.44469 134.599 8.91136 134.866C8.37803 135.133 7.74336 135.266 7.00736 135.266ZM15.6662 135.266C14.9729 135.266 14.3436 135.106 13.7782 134.786C13.2129 134.455 12.7649 133.986 12.4342 133.378C12.1036 132.77 11.9382 132.045 11.9382 131.202C11.9382 130.349 12.1036 129.618 12.4342 129.01C12.7756 128.402 13.2129 127.933 13.7462 127.602C14.2796 127.271 14.8396 127.106 15.4262 127.106C16.4182 127.106 17.1809 127.437 17.7142 128.098C18.2582 128.759 18.5302 129.645 18.5302 130.754C18.5302 130.893 18.5249 131.031 18.5142 131.17C18.5142 131.298 18.5036 131.41 18.4822 131.506H13.2342C13.2876 132.327 13.5436 132.983 14.0022 133.474C14.4716 133.965 15.0796 134.21 15.8262 134.21C16.1996 134.21 16.5409 134.157 16.8502 134.05C17.1702 133.933 17.4742 133.783 17.7622 133.602L18.2262 134.466C17.8956 134.679 17.5169 134.866 17.0902 135.026C16.6742 135.186 16.1996 135.266 15.6662 135.266ZM13.2182 130.562H17.3782C17.3782 129.773 17.2076 129.175 16.8662 128.77C16.5356 128.354 16.0662 128.146 15.4582 128.146C14.9142 128.146 14.4236 128.359 13.9862 128.786C13.5596 129.202 13.3036 129.794 13.2182 130.562ZM21.8437 135.266C21.3531 135.266 20.9957 135.117 20.7717 134.818C20.5584 134.509 20.4517 134.071 20.4517 133.506V123.682H21.7637V133.602C21.7637 133.805 21.8011 133.954 21.8757 134.05C21.9504 134.135 22.0357 134.178 22.1317 134.178C22.1744 134.178 22.2117 134.178 22.2437 134.178C22.2864 134.167 22.3451 134.157 22.4197 134.146L22.5957 135.138C22.5104 135.181 22.4091 135.213 22.2917 135.234C22.1744 135.255 22.0251 135.266 21.8437 135.266ZM27.6819 135.266C26.9885 135.266 26.3592 135.106 25.7939 134.786C25.2285 134.455 24.7805 133.986 24.4499 133.378C24.1192 132.77 23.9539 132.045 23.9539 131.202C23.9539 130.349 24.1192 129.618 24.4499 129.01C24.7912 128.402 25.2285 127.933 25.7619 127.602C26.2952 127.271 26.8552 127.106 27.4419 127.106C28.4339 127.106 29.1965 127.437 29.7299 128.098C30.2739 128.759 30.5459 129.645 30.5459 130.754C30.5459 130.893 30.5405 131.031 30.5299 131.17C30.5299 131.298 30.5192 131.41 30.4979 131.506H25.2499C25.3032 132.327 25.5592 132.983 26.0179 133.474C26.4872 133.965 27.0952 134.21 27.8419 134.21C28.2152 134.21 28.5565 134.157 28.8659 134.05C29.1859 133.933 29.4899 133.783 29.7779 133.602L30.2419 134.466C29.9112 134.679 29.5325 134.866 29.1059 135.026C28.6899 135.186 28.2152 135.266 27.6819 135.266ZM25.2339 130.562H29.3939C29.3939 129.773 29.2232 129.175 28.8819 128.77C28.5512 128.354 28.0819 128.146 27.4739 128.146C26.9299 128.146 26.4392 128.359 26.0019 128.786C25.5752 129.202 25.3192 129.794 25.2339 130.562ZM32.4674 135.074V127.298H33.5554L33.6674 128.418H33.7154C34.0887 128.045 34.4834 127.735 34.8994 127.49C35.3154 127.234 35.79 127.106 36.3234 127.106C37.1447 127.106 37.742 127.367 38.1154 127.89C38.4994 128.402 38.6914 129.154 38.6914 130.146V135.074H37.3794V130.322C37.3794 129.597 37.262 129.069 37.0274 128.738C36.7927 128.407 36.4194 128.242 35.9074 128.242C35.5127 128.242 35.1554 128.343 34.8354 128.546C34.526 128.749 34.174 129.047 33.7794 129.442V135.074H32.4674ZM41.2174 135.074V127.298H42.5294V135.074H41.2174ZM41.8894 125.698C41.6334 125.698 41.42 125.623 41.2494 125.474C41.0894 125.314 41.0094 125.101 41.0094 124.834C41.0094 124.578 41.0894 124.37 41.2494 124.21C41.42 124.05 41.6334 123.97 41.8894 123.97C42.1454 123.97 42.3534 124.05 42.5134 124.21C42.684 124.37 42.7694 124.578 42.7694 124.834C42.7694 125.101 42.684 125.314 42.5134 125.474C42.3534 125.623 42.1454 125.698 41.8894 125.698ZM47.4269 135.266C46.6055 135.266 46.0029 135.01 45.6189 134.498C45.2349 133.975 45.0429 133.218 45.0429 132.226V127.298H46.3709V132.05C46.3709 132.775 46.4829 133.303 46.7069 133.634C46.9415 133.965 47.3149 134.13 47.8269 134.13C48.2322 134.13 48.5895 134.029 48.8989 133.826C49.2189 133.613 49.5602 133.277 49.9229 132.818V127.298H51.2349V135.074H50.1469L50.0349 133.858H49.9869C49.6242 134.285 49.2402 134.626 48.8349 134.882C48.4295 135.138 47.9602 135.266 47.4269 135.266ZM53.858 135.074V127.298H54.946L55.058 128.418H55.106C55.4473 128.045 55.8207 127.735 56.226 127.49C56.6313 127.234 57.0633 127.106 57.522 127.106C58.1193 127.106 58.5833 127.239 58.914 127.506C59.2553 127.762 59.506 128.125 59.666 128.594C60.0713 128.157 60.482 127.799 60.898 127.522C61.314 127.245 61.7567 127.106 62.226 127.106C63.026 127.106 63.618 127.367 64.002 127.89C64.3967 128.402 64.594 129.154 64.594 130.146V135.074H63.282V130.322C63.282 129.597 63.1647 129.069 62.93 128.738C62.6953 128.407 62.3327 128.242 61.842 128.242C61.266 128.242 60.6153 128.642 59.89 129.442V135.074H58.578V130.322C58.578 129.597 58.4607 129.069 58.226 128.738C57.9913 128.407 57.6233 128.242 57.122 128.242C56.546 128.242 55.8953 128.642 55.17 129.442V135.074H53.858ZM8.06336 155.266C7.18869 155.266 6.40469 155.053 5.71136 154.626C5.02869 154.189 4.48469 153.565 4.07936 152.754C3.68469 151.943 3.48736 150.967 3.48736 149.826C3.48736 148.695 3.69003 147.725 4.09536 146.914C4.50069 146.103 5.05536 145.479 5.75936 145.042C6.46336 144.605 7.25803 144.386 8.14336 144.386C8.78336 144.386 9.34869 144.519 9.83936 144.786C10.33 145.042 10.7247 145.341 11.0234 145.682L10.3034 146.546C10.026 146.247 9.71136 146.007 9.35936 145.826C9.00736 145.645 8.60736 145.554 8.15936 145.554C7.49803 145.554 6.91669 145.73 6.41536 146.082C5.92469 146.423 5.54069 146.909 5.26336 147.538C4.99669 148.167 4.86336 148.919 4.86336 149.794C4.86336 150.669 4.99669 151.431 5.26336 152.082C5.53003 152.722 5.90336 153.218 6.38336 153.57C6.87403 153.922 7.45003 154.098 8.11136 154.098C8.61269 154.098 9.06069 153.991 9.45536 153.778C9.85003 153.565 10.2127 153.277 10.5434 152.914L11.2794 153.746C10.8634 154.226 10.394 154.599 9.87136 154.866C9.34869 155.133 8.74603 155.266 8.06336 155.266ZM14.9 155.266C14.2493 155.266 13.7053 155.074 13.268 154.69C12.8413 154.295 12.628 153.751 12.628 153.058C12.628 152.205 13.0067 151.554 13.764 151.106C14.532 150.647 15.7427 150.327 17.396 150.146C17.396 149.815 17.348 149.501 17.252 149.202C17.1667 148.903 17.0067 148.663 16.772 148.482C16.548 148.29 16.2227 148.194 15.796 148.194C15.348 148.194 14.9267 148.279 14.532 148.45C14.1373 148.621 13.7853 148.813 13.476 149.026L12.964 148.114C13.3267 147.879 13.7693 147.655 14.292 147.442C14.8253 147.218 15.4013 147.106 16.02 147.106C16.9693 147.106 17.6573 147.399 18.084 147.986C18.5107 148.562 18.724 149.335 18.724 150.306V155.074H17.636L17.524 154.146H17.476C17.1133 154.445 16.7133 154.706 16.276 154.93C15.8493 155.154 15.3907 155.266 14.9 155.266ZM15.284 154.21C15.6573 154.21 16.0093 154.119 16.34 153.938C16.6707 153.757 17.0227 153.501 17.396 153.17V151.01C16.1053 151.17 15.1987 151.41 14.676 151.73C14.164 152.05 13.908 152.461 13.908 152.962C13.908 153.399 14.0413 153.719 14.308 153.922C14.5747 154.114 14.9 154.21 15.284 154.21ZM21.1705 158.354V147.298H22.2585L22.3705 148.194H22.4185C22.7705 147.895 23.1545 147.639 23.5705 147.426C23.9972 147.213 24.4398 147.106 24.8985 147.106C25.9012 147.106 26.6638 147.469 27.1865 148.194C27.7092 148.909 27.9705 149.869 27.9705 151.074C27.9705 151.949 27.8105 152.701 27.4905 153.33C27.1812 153.959 26.7705 154.439 26.2585 154.77C25.7572 155.101 25.2078 155.266 24.6105 155.266C24.2478 155.266 23.8852 155.186 23.5225 155.026C23.1705 154.866 22.8132 154.647 22.4505 154.37L22.4825 155.73V158.354H21.1705ZM24.3865 154.162C25.0265 154.162 25.5545 153.89 25.9705 153.346C26.3972 152.791 26.6105 152.034 26.6105 151.074C26.6105 150.221 26.4505 149.533 26.1305 149.01C25.8212 148.477 25.2985 148.21 24.5625 148.21C24.2318 148.21 23.8958 148.301 23.5545 148.482C23.2238 148.663 22.8665 148.925 22.4825 149.266V153.346C22.8345 153.645 23.1758 153.858 23.5065 153.986C23.8372 154.103 24.1305 154.162 24.3865 154.162ZM31.6187 155.266C30.9681 155.266 30.4241 155.074 29.9867 154.69C29.5601 154.295 29.3467 153.751 29.3467 153.058C29.3467 152.205 29.7254 151.554 30.4827 151.106C31.2507 150.647 32.4614 150.327 34.1147 150.146C34.1147 149.815 34.0667 149.501 33.9707 149.202C33.8854 148.903 33.7254 148.663 33.4907 148.482C33.2667 148.29 32.9414 148.194 32.5147 148.194C32.0667 148.194 31.6454 148.279 31.2507 148.45C30.8561 148.621 30.5041 148.813 30.1947 149.026L29.6827 148.114C30.0454 147.879 30.4881 147.655 31.0107 147.442C31.5441 147.218 32.1201 147.106 32.7387 147.106C33.6881 147.106 34.3761 147.399 34.8027 147.986C35.2294 148.562 35.4427 149.335 35.4427 150.306V155.074H34.3547L34.2427 154.146H34.1947C33.8321 154.445 33.4321 154.706 32.9947 154.93C32.5681 155.154 32.1094 155.266 31.6187 155.266ZM32.0027 154.21C32.3761 154.21 32.7281 154.119 33.0587 153.938C33.3894 153.757 33.7414 153.501 34.1147 153.17V151.01C32.8241 151.17 31.9174 151.41 31.3947 151.73C30.8827 152.05 30.6267 152.461 30.6267 152.962C30.6267 153.399 30.7601 153.719 31.0267 153.922C31.2934 154.114 31.6187 154.21 32.0027 154.21ZM41.3292 155.266C40.9666 155.266 40.5879 155.181 40.1932 155.01C39.8092 154.829 39.4466 154.583 39.1052 154.274H39.0572L38.9452 155.074H37.8892V143.682H39.2012V146.786L39.1692 148.194C39.5212 147.885 39.9052 147.629 40.3212 147.426C40.7479 147.213 41.1746 147.106 41.6012 147.106C42.6146 147.106 43.3826 147.463 43.9052 148.178C44.4279 148.893 44.6892 149.853 44.6892 151.058C44.6892 151.943 44.5292 152.701 44.2092 153.33C43.8999 153.959 43.4892 154.439 42.9772 154.77C42.4759 155.101 41.9266 155.266 41.3292 155.266ZM41.1052 154.162C41.7452 154.162 42.2732 153.89 42.6892 153.346C43.1159 152.791 43.3292 152.034 43.3292 151.074C43.3292 150.221 43.1692 149.533 42.8492 149.01C42.5399 148.477 42.0172 148.21 41.2812 148.21C40.9506 148.21 40.6146 148.301 40.2732 148.482C39.9319 148.663 39.5746 148.925 39.2012 149.266V153.346C39.5426 153.645 39.8786 153.858 40.2092 153.986C40.5506 154.103 40.8492 154.162 41.1052 154.162ZM46.733 155.074V147.298H48.045V155.074H46.733ZM47.405 145.698C47.149 145.698 46.9357 145.623 46.765 145.474C46.605 145.314 46.525 145.101 46.525 144.834C46.525 144.578 46.605 144.37 46.765 144.21C46.9357 144.05 47.149 143.97 47.405 143.97C47.661 143.97 47.869 144.05 48.029 144.21C48.1997 144.37 48.285 144.578 48.285 144.834C48.285 145.101 48.1997 145.314 48.029 145.474C47.869 145.623 47.661 145.698 47.405 145.698ZM52.0625 155.266C51.5718 155.266 51.2145 155.117 50.9905 154.818C50.7772 154.509 50.6705 154.071 50.6705 153.506V143.682H51.9825V153.602C51.9825 153.805 52.0198 153.954 52.0945 154.05C52.1692 154.135 52.2545 154.178 52.3505 154.178C52.3932 154.178 52.4305 154.178 52.4625 154.178C52.5052 154.167 52.5638 154.157 52.6385 154.146L52.8145 155.138C52.7292 155.181 52.6278 155.213 52.5105 155.234C52.3932 155.255 52.2438 155.266 52.0625 155.266ZM54.7486 155.074V147.298H56.0606V155.074H54.7486ZM55.4206 145.698C55.1646 145.698 54.9513 145.623 54.7806 145.474C54.6206 145.314 54.5406 145.101 54.5406 144.834C54.5406 144.578 54.6206 144.37 54.7806 144.21C54.9513 144.05 55.1646 143.97 55.4206 143.97C55.6766 143.97 55.8846 144.05 56.0446 144.21C56.2153 144.37 56.3006 144.578 56.3006 144.834C56.3006 145.101 56.2153 145.314 56.0446 145.474C55.8846 145.623 55.6766 145.698 55.4206 145.698ZM61.1341 155.266C60.3021 155.266 59.7208 155.026 59.3901 154.546C59.0701 154.066 58.9101 153.442 58.9101 152.674V148.37H57.7581V147.378L58.9741 147.298L59.1341 145.122H60.2381V147.298H62.3341V148.37H60.2381V152.69C60.2381 153.17 60.3234 153.543 60.4941 153.81C60.6754 154.066 60.9901 154.194 61.4381 154.194C61.5768 154.194 61.7261 154.173 61.8861 154.13C62.0461 154.077 62.1901 154.029 62.3181 153.986L62.5741 154.978C62.3608 155.053 62.1261 155.117 61.8701 155.17C61.6248 155.234 61.3794 155.266 61.1341 155.266ZM64.0924 155.074V147.298H65.4044V155.074H64.0924ZM64.7644 145.698C64.5084 145.698 64.295 145.623 64.1244 145.474C63.9644 145.314 63.8844 145.101 63.8844 144.834C63.8844 144.578 63.9644 144.37 64.1244 144.21C64.295 144.05 64.5084 143.97 64.7644 143.97C65.0204 143.97 65.2284 144.05 65.3884 144.21C65.559 144.37 65.6444 144.578 65.6444 144.834C65.6444 145.101 65.559 145.314 65.3884 145.474C65.2284 145.623 65.0204 145.698 64.7644 145.698ZM71.1819 155.266C70.4885 155.266 69.8592 155.106 69.2939 154.786C68.7285 154.455 68.2805 153.986 67.9499 153.378C67.6192 152.77 67.4539 152.045 67.4539 151.202C67.4539 150.349 67.6192 149.618 67.9499 149.01C68.2912 148.402 68.7285 147.933 69.2619 147.602C69.7952 147.271 70.3552 147.106 70.9419 147.106C71.9339 147.106 72.6965 147.437 73.2299 148.098C73.7739 148.759 74.0459 149.645 74.0459 150.754C74.0459 150.893 74.0405 151.031 74.0299 151.17C74.0299 151.298 74.0192 151.41 73.9979 151.506H68.7499C68.8032 152.327 69.0592 152.983 69.5179 153.474C69.9872 153.965 70.5952 154.21 71.3419 154.21C71.7152 154.21 72.0565 154.157 72.3659 154.05C72.6859 153.933 72.9899 153.783 73.2779 153.602L73.7419 154.466C73.4112 154.679 73.0325 154.866 72.6059 155.026C72.1899 155.186 71.7152 155.266 71.1819 155.266ZM68.7339 150.562H72.8939C72.8939 149.773 72.7232 149.175 72.3819 148.77C72.0512 148.354 71.5819 148.146 70.9739 148.146C70.4299 148.146 69.9392 148.359 69.5019 148.786C69.0752 149.202 68.8192 149.794 68.7339 150.562ZM77.9994 155.266C77.4447 155.266 76.9167 155.165 76.4154 154.962C75.914 154.749 75.4767 154.493 75.1034 154.194L75.7594 153.314C76.1007 153.581 76.4527 153.805 76.8154 153.986C77.178 154.157 77.5887 154.242 78.0474 154.242C78.5594 154.242 78.9434 154.125 79.1994 153.89C79.4554 153.645 79.5834 153.357 79.5834 153.026C79.5834 152.759 79.4927 152.535 79.3114 152.354C79.1407 152.173 78.9167 152.023 78.6394 151.906C78.3727 151.778 78.0954 151.661 77.8074 151.554C77.4447 151.415 77.0874 151.261 76.7354 151.09C76.3834 150.909 76.0954 150.679 75.8714 150.402C75.6474 150.114 75.5354 149.751 75.5354 149.314C75.5354 148.685 75.77 148.162 76.2394 147.746C76.7194 147.319 77.3807 147.106 78.2234 147.106C78.7034 147.106 79.1514 147.191 79.5674 147.362C79.9834 147.533 80.3407 147.741 80.6394 147.986L79.9994 148.818C79.7327 148.615 79.4554 148.45 79.1674 148.322C78.8794 148.194 78.5647 148.13 78.2234 148.13C77.7327 148.13 77.37 148.242 77.1354 148.466C76.9114 148.69 76.7994 148.951 76.7994 149.25C76.7994 149.495 76.8794 149.698 77.0394 149.858C77.1994 150.007 77.4074 150.141 77.6634 150.258C77.9194 150.365 78.1914 150.477 78.4794 150.594C78.8527 150.733 79.2207 150.893 79.5834 151.074C79.946 151.245 80.2447 151.479 80.4794 151.778C80.7247 152.066 80.8474 152.455 80.8474 152.946C80.8474 153.362 80.7354 153.746 80.5114 154.098C80.298 154.45 79.978 154.733 79.5514 154.946C79.1354 155.159 78.618 155.266 77.9994 155.266Z" fill="#914618"/>
<path d="M2.27839 313.487V302.991H5.39839C6.11305 302.991 6.73705 303.076 7.27039 303.247C7.81439 303.418 8.23572 303.69 8.53439 304.063C8.84372 304.436 8.99839 304.932 8.99839 305.551C8.99839 306.074 8.86505 306.548 8.59839 306.975C8.34239 307.391 7.96372 307.679 7.46239 307.839V307.903C8.09172 308.02 8.60372 308.287 8.99839 308.703C9.40372 309.119 9.60639 309.69 9.60639 310.415C9.60639 311.098 9.43572 311.668 9.09439 312.127C8.76372 312.586 8.29972 312.927 7.70239 313.151C7.10505 313.375 6.41172 313.487 5.62239 313.487H2.27839ZM3.60639 307.455H5.15839C6.05439 307.455 6.69972 307.3 7.09439 306.991C7.48905 306.682 7.68639 306.26 7.68639 305.727C7.68639 305.119 7.47839 304.687 7.06239 304.431C6.65705 304.175 6.04372 304.047 5.22239 304.047H3.60639V307.455ZM3.60639 312.431H5.43039C6.33705 312.431 7.04105 312.266 7.54239 311.935C8.04372 311.594 8.29439 311.071 8.29439 310.367C8.29439 309.716 8.04372 309.242 7.54239 308.943C7.05172 308.634 6.34772 308.479 5.43039 308.479H3.60639V312.431ZM14.7086 313.679C14.0153 313.679 13.386 313.519 12.8206 313.199C12.2553 312.868 11.8073 312.399 11.4766 311.791C11.146 311.183 10.9806 310.458 10.9806 309.615C10.9806 308.762 11.146 308.031 11.4766 307.423C11.818 306.815 12.2553 306.346 12.7886 306.015C13.322 305.684 13.882 305.519 14.4686 305.519C15.4606 305.519 16.2233 305.85 16.7566 306.511C17.3006 307.172 17.5726 308.058 17.5726 309.167C17.5726 309.306 17.5673 309.444 17.5566 309.583C17.5566 309.711 17.546 309.823 17.5246 309.919H12.2766C12.33 310.74 12.586 311.396 13.0446 311.887C13.514 312.378 14.122 312.623 14.8686 312.623C15.242 312.623 15.5833 312.57 15.8926 312.463C16.2126 312.346 16.5166 312.196 16.8046 312.015L17.2686 312.879C16.938 313.092 16.5593 313.279 16.1326 313.439C15.7166 313.599 15.242 313.679 14.7086 313.679ZM12.2606 308.975H16.4206C16.4206 308.186 16.25 307.588 15.9086 307.183C15.578 306.767 15.1086 306.559 14.5006 306.559C13.9566 306.559 13.466 306.772 13.0286 307.199C12.602 307.615 12.346 308.207 12.2606 308.975ZM21.7859 313.679C20.9539 313.679 20.3726 313.439 20.0419 312.959C19.7219 312.479 19.5619 311.855 19.5619 311.087V306.783H18.4099V305.791L19.6259 305.711L19.7859 303.535H20.8899V305.711H22.9859V306.783H20.8899V311.103C20.8899 311.583 20.9752 311.956 21.1459 312.223C21.3272 312.479 21.6419 312.607 22.0899 312.607C22.2286 312.607 22.3779 312.586 22.5379 312.543C22.6979 312.49 22.8419 312.442 22.9699 312.399L23.2259 313.391C23.0126 313.466 22.7779 313.53 22.5219 313.583C22.2766 313.647 22.0312 313.679 21.7859 313.679ZM26.8796 313.679C26.0476 313.679 25.4663 313.439 25.1356 312.959C24.8156 312.479 24.6556 311.855 24.6556 311.087V306.783H23.5036V305.791L24.7196 305.711L24.8796 303.535H25.9836V305.711H28.0796V306.783H25.9836V311.103C25.9836 311.583 26.069 311.956 26.2396 312.223C26.421 312.479 26.7356 312.607 27.1836 312.607C27.3223 312.607 27.4716 312.586 27.6316 312.543C27.7916 312.49 27.9356 312.442 28.0636 312.399L28.3196 313.391C28.1063 313.466 27.8716 313.53 27.6156 313.583C27.3703 313.647 27.125 313.679 26.8796 313.679ZM32.7711 313.679C32.0778 313.679 31.4485 313.519 30.8831 313.199C30.3178 312.868 29.8698 312.399 29.5391 311.791C29.2085 311.183 29.0431 310.458 29.0431 309.615C29.0431 308.762 29.2085 308.031 29.5391 307.423C29.8805 306.815 30.3178 306.346 30.8511 306.015C31.3845 305.684 31.9445 305.519 32.5311 305.519C33.5231 305.519 34.2858 305.85 34.8191 306.511C35.3631 307.172 35.6351 308.058 35.6351 309.167C35.6351 309.306 35.6298 309.444 35.6191 309.583C35.6191 309.711 35.6085 309.823 35.5871 309.919H30.3391C30.3925 310.74 30.6485 311.396 31.1071 311.887C31.5765 312.378 32.1845 312.623 32.9311 312.623C33.3045 312.623 33.6458 312.57 33.9551 312.463C34.2751 312.346 34.5791 312.196 34.8671 312.015L35.3311 312.879C35.0005 313.092 34.6218 313.279 34.1951 313.439C33.7791 313.599 33.3045 313.679 32.7711 313.679ZM30.3231 308.975H34.4831C34.4831 308.186 34.3125 307.588 33.9711 307.183C33.6405 306.767 33.1711 306.559 32.5631 306.559C32.0191 306.559 31.5285 306.772 31.0911 307.199C30.6645 307.615 30.4085 308.207 30.3231 308.975ZM37.5566 313.487V305.711H38.6446L38.7566 307.119H38.8046C39.0713 306.628 39.3966 306.239 39.7806 305.951C40.1646 305.663 40.5753 305.519 41.0126 305.519C41.322 305.519 41.5993 305.572 41.8446 305.679L41.5886 306.831C41.4606 306.788 41.3433 306.756 41.2366 306.735C41.13 306.714 40.9966 306.703 40.8366 306.703C40.506 306.703 40.1593 306.836 39.7966 307.103C39.4446 307.37 39.1353 307.834 38.8686 308.495V313.487H37.5566ZM2.27839 333.487V322.991H3.60639V333.487H2.27839ZM6.35351 333.487V325.711H7.44151L7.55351 326.831H7.60151C7.97485 326.458 8.36951 326.148 8.78551 325.903C9.20151 325.647 9.67618 325.519 10.2095 325.519C11.0308 325.519 11.6282 325.78 12.0015 326.303C12.3855 326.815 12.5775 327.567 12.5775 328.559V333.487H11.2655V328.735C11.2655 328.01 11.1482 327.482 10.9135 327.151C10.6788 326.82 10.3055 326.655 9.79351 326.655C9.39885 326.655 9.04151 326.756 8.72151 326.959C8.41218 327.162 8.06018 327.46 7.66551 327.855V333.487H6.35351ZM17.5515 333.679C16.7195 333.679 16.1382 333.439 15.8075 332.959C15.4875 332.479 15.3275 331.855 15.3275 331.087V326.783H14.1755V325.791L15.3915 325.711L15.5515 323.535H16.6555V325.711H18.7515V326.783H16.6555V331.103C16.6555 331.583 16.7408 331.956 16.9115 332.223C17.0928 332.479 17.4075 332.607 17.8555 332.607C17.9942 332.607 18.1435 332.586 18.3035 332.543C18.4635 332.49 18.6075 332.442 18.7355 332.399L18.9915 333.391C18.7782 333.466 18.5435 333.53 18.2875 333.583C18.0422 333.647 17.7968 333.679 17.5515 333.679ZM23.443 333.679C22.7497 333.679 22.1203 333.519 21.555 333.199C20.9897 332.868 20.5417 332.399 20.211 331.791C19.8803 331.183 19.715 330.458 19.715 329.615C19.715 328.762 19.8803 328.031 20.211 327.423C20.5523 326.815 20.9897 326.346 21.523 326.015C22.0563 325.684 22.6163 325.519 23.203 325.519C24.195 325.519 24.9577 325.85 25.491 326.511C26.035 327.172 26.307 328.058 26.307 329.167C26.307 329.306 26.3017 329.444 26.291 329.583C26.291 329.711 26.2803 329.823 26.259 329.919H21.011C21.0643 330.74 21.3203 331.396 21.779 331.887C22.2483 332.378 22.8563 332.623 23.603 332.623C23.9763 332.623 24.3177 332.57 24.627 332.463C24.947 332.346 25.251 332.196 25.539 332.015L26.003 332.879C25.6723 333.092 25.2937 333.279 24.867 333.439C24.451 333.599 23.9763 333.679 23.443 333.679ZM20.995 328.975H25.155C25.155 328.186 24.9843 327.588 24.643 327.183C24.3123 326.767 23.843 326.559 23.235 326.559C22.691 326.559 22.2003 326.772 21.763 327.199C21.3363 327.615 21.0803 328.207 20.995 328.975ZM30.6963 337.071C29.7469 337.071 28.9736 336.89 28.3763 336.527C27.7789 336.164 27.4803 335.647 27.4803 334.975C27.4803 334.644 27.5816 334.324 27.7843 334.015C27.9869 333.716 28.2643 333.45 28.6163 333.215V333.151C28.4243 333.034 28.2589 332.868 28.1203 332.655C27.9923 332.442 27.9283 332.186 27.9283 331.887C27.9283 331.556 28.0189 331.268 28.2003 331.023C28.3816 330.778 28.5736 330.586 28.7763 330.447V330.383C28.5203 330.17 28.2856 329.882 28.0723 329.519C27.8696 329.156 27.7683 328.746 27.7683 328.287C27.7683 327.722 27.9016 327.231 28.1683 326.815C28.4349 326.399 28.7923 326.079 29.2403 325.855C29.6883 325.631 30.1736 325.519 30.6963 325.519C30.9096 325.519 31.1123 325.54 31.3043 325.583C31.4963 325.615 31.6616 325.658 31.8003 325.711H34.5043V326.719H32.9043C33.0856 326.89 33.2349 327.119 33.3523 327.407C33.4803 327.684 33.5443 327.988 33.5443 328.319C33.5443 328.874 33.4163 329.354 33.1603 329.759C32.9043 330.164 32.5629 330.479 32.1363 330.703C31.7096 330.916 31.2296 331.023 30.6963 331.023C30.2803 331.023 29.8909 330.932 29.5283 330.751C29.3896 330.868 29.2723 331.002 29.1763 331.151C29.0803 331.29 29.0323 331.466 29.0323 331.679C29.0323 331.924 29.1283 332.127 29.3203 332.287C29.5229 332.447 29.8856 332.527 30.4083 332.527H31.9123C32.8189 332.527 33.4963 332.676 33.9443 332.975C34.4029 333.263 34.6323 333.732 34.6323 334.383C34.6323 334.863 34.4723 335.306 34.1523 335.711C33.8323 336.116 33.3789 336.442 32.7923 336.687C32.2056 336.943 31.5069 337.071 30.6963 337.071ZM30.6963 330.143C31.1443 330.143 31.5283 329.978 31.8483 329.647C32.1789 329.306 32.3443 328.852 32.3443 328.287C32.3443 327.722 32.1843 327.279 31.8643 326.959C31.5443 326.639 31.1549 326.479 30.6963 326.479C30.2376 326.479 29.8483 326.639 29.5283 326.959C29.2083 327.279 29.0483 327.722 29.0483 328.287C29.0483 328.852 29.2083 329.306 29.5283 329.647C29.8589 329.978 30.2483 330.143 30.6963 330.143ZM30.8883 336.159C31.6349 336.159 32.2323 335.994 32.6803 335.663C33.1283 335.343 33.3523 334.98 33.3523 334.575C33.3523 334.212 33.2136 333.962 32.9363 333.823C32.6696 333.684 32.2856 333.615 31.7843 333.615H30.4403C30.2909 333.615 30.1256 333.604 29.9443 333.583C29.7736 333.562 29.6029 333.53 29.4323 333.487C29.1549 333.69 28.9523 333.903 28.8243 334.127C28.6963 334.351 28.6323 334.575 28.6323 334.799C28.6323 335.215 28.8296 335.546 29.2243 335.791C29.6296 336.036 30.1843 336.159 30.8883 336.159ZM36.1348 333.487V325.711H37.2228L37.3348 327.119H37.3828C37.6494 326.628 37.9748 326.239 38.3588 325.951C38.7428 325.663 39.1534 325.519 39.5908 325.519C39.9001 325.519 40.1774 325.572 40.4228 325.679L40.1668 326.831C40.0388 326.788 39.9214 326.756 39.8148 326.735C39.7081 326.714 39.5748 326.703 39.4148 326.703C39.0841 326.703 38.7374 326.836 38.3748 327.103C38.0228 327.37 37.7134 327.834 37.4468 328.495V333.487H36.1348ZM43.083 333.679C42.4323 333.679 41.8883 333.487 41.451 333.103C41.0243 332.708 40.811 332.164 40.811 331.471C40.811 330.618 41.1897 329.967 41.947 329.519C42.715 329.06 43.9257 328.74 45.579 328.559C45.579 328.228 45.531 327.914 45.435 327.615C45.3497 327.316 45.1897 327.076 44.955 326.895C44.731 326.703 44.4057 326.607 43.979 326.607C43.531 326.607 43.1097 326.692 42.715 326.863C42.3203 327.034 41.9683 327.226 41.659 327.439L41.147 326.527C41.5097 326.292 41.9523 326.068 42.475 325.855C43.0083 325.631 43.5843 325.519 44.203 325.519C45.1523 325.519 45.8403 325.812 46.267 326.399C46.6937 326.975 46.907 327.748 46.907 328.719V333.487H45.819L45.707 332.559H45.659C45.2963 332.858 44.8963 333.119 44.459 333.343C44.0323 333.567 43.5737 333.679 43.083 333.679ZM43.467 332.623C43.8403 332.623 44.1923 332.532 44.523 332.351C44.8537 332.17 45.2057 331.914 45.579 331.583V329.423C44.2883 329.583 43.3817 329.823 42.859 330.143C42.347 330.463 42.091 330.874 42.091 331.375C42.091 331.812 42.2243 332.132 42.491 332.335C42.7577 332.527 43.083 332.623 43.467 332.623ZM51.5828 333.679C50.7508 333.679 50.1694 333.439 49.8388 332.959C49.5188 332.479 49.3588 331.855 49.3588 331.087V326.783H48.2068V325.791L49.4228 325.711L49.5828 323.535H50.6868V325.711H52.7828V326.783H50.6868V331.103C50.6868 331.583 50.7721 331.956 50.9428 332.223C51.1241 332.479 51.4388 332.607 51.8868 332.607C52.0254 332.607 52.1748 332.586 52.3348 332.543C52.4948 332.49 52.6388 332.442 52.7668 332.399L53.0228 333.391C52.8094 333.466 52.5748 333.53 52.3188 333.583C52.0734 333.647 51.8281 333.679 51.5828 333.679ZM54.541 333.487V325.711H55.853V333.487H54.541ZM55.213 324.111C54.957 324.111 54.7437 324.036 54.573 323.887C54.413 323.727 54.333 323.514 54.333 323.247C54.333 322.991 54.413 322.783 54.573 322.623C54.7437 322.463 54.957 322.383 55.213 322.383C55.469 322.383 55.677 322.463 55.837 322.623C56.0077 322.783 56.093 322.991 56.093 323.247C56.093 323.514 56.0077 323.727 55.837 323.887C55.677 324.036 55.469 324.111 55.213 324.111ZM61.5025 333.679C60.8732 333.679 60.2812 333.519 59.7265 333.199C59.1825 332.879 58.7398 332.415 58.3985 331.807C58.0678 331.199 57.9025 330.468 57.9025 329.615C57.9025 328.74 58.0678 327.999 58.3985 327.391C58.7398 326.783 59.1825 326.319 59.7265 325.999C60.2812 325.679 60.8732 325.519 61.5025 325.519C62.1425 325.519 62.7345 325.679 63.2785 325.999C63.8225 326.319 64.2598 326.783 64.5905 327.391C64.9318 327.999 65.1025 328.74 65.1025 329.615C65.1025 330.468 64.9318 331.199 64.5905 331.807C64.2598 332.415 63.8225 332.879 63.2785 333.199C62.7345 333.519 62.1425 333.679 61.5025 333.679ZM61.5025 332.591C62.1745 332.591 62.7132 332.319 63.1185 331.775C63.5345 331.22 63.7425 330.5 63.7425 329.615C63.7425 328.719 63.5345 327.994 63.1185 327.439C62.7132 326.884 62.1745 326.607 61.5025 326.607C60.8412 326.607 60.3025 326.884 59.8865 327.439C59.4705 327.994 59.2625 328.719 59.2625 329.615C59.2625 330.5 59.4705 331.22 59.8865 331.775C60.3025 332.319 60.8412 332.591 61.5025 332.591ZM67.1504 333.487V325.711H68.2384L68.3504 326.831H68.3984C68.7717 326.458 69.1664 326.148 69.5824 325.903C69.9984 325.647 70.4731 325.519 71.0064 325.519C71.8277 325.519 72.4251 325.78 72.7984 326.303C73.1824 326.815 73.3744 327.567 73.3744 328.559V333.487H72.0624V328.735C72.0624 328.01 71.9451 327.482 71.7104 327.151C71.4757 326.82 71.1024 326.655 70.5904 326.655C70.1957 326.655 69.8384 326.756 69.5184 326.959C69.2091 327.162 68.8571 327.46 68.4624 327.855V333.487H67.1504ZM77.9324 333.679C77.3777 333.679 76.8497 333.578 76.3484 333.375C75.8471 333.162 75.4097 332.906 75.0364 332.607L75.6924 331.727C76.0337 331.994 76.3857 332.218 76.7484 332.399C77.1111 332.57 77.5217 332.655 77.9804 332.655C78.4924 332.655 78.8764 332.538 79.1324 332.303C79.3884 332.058 79.5164 331.77 79.5164 331.439C79.5164 331.172 79.4257 330.948 79.2444 330.767C79.0737 330.586 78.8497 330.436 78.5724 330.319C78.3057 330.191 78.0284 330.074 77.7404 329.967C77.3777 329.828 77.0204 329.674 76.6684 329.503C76.3164 329.322 76.0284 329.092 75.8044 328.815C75.5804 328.527 75.4684 328.164 75.4684 327.727C75.4684 327.098 75.7031 326.575 76.1724 326.159C76.6524 325.732 77.3137 325.519 78.1564 325.519C78.6364 325.519 79.0844 325.604 79.5004 325.775C79.9164 325.946 80.2737 326.154 80.5724 326.399L79.9324 327.231C79.6657 327.028 79.3884 326.863 79.1004 326.735C78.8124 326.607 78.4977 326.543 78.1564 326.543C77.6657 326.543 77.3031 326.655 77.0684 326.879C76.8444 327.103 76.7324 327.364 76.7324 327.663C76.7324 327.908 76.8124 328.111 76.9724 328.271C77.1324 328.42 77.3404 328.554 77.5964 328.671C77.8524 328.778 78.1244 328.89 78.4124 329.007C78.7857 329.146 79.1537 329.306 79.5164 329.487C79.8791 329.658 80.1777 329.892 80.4124 330.191C80.6577 330.479 80.7804 330.868 80.7804 331.359C80.7804 331.775 80.6684 332.159 80.4444 332.511C80.2311 332.863 79.9111 333.146 79.4844 333.359C79.0684 333.572 78.5511 333.679 77.9324 333.679Z" fill="#914618"/>
<path d="M499.495 313.679C498.62 313.679 497.836 313.465 497.143 313.039C496.46 312.601 495.916 311.977 495.511 311.167C495.116 310.356 494.919 309.38 494.919 308.239C494.919 307.108 495.122 306.137 495.527 305.327C495.932 304.516 496.487 303.892 497.191 303.455C497.895 303.017 498.69 302.799 499.575 302.799C500.215 302.799 500.78 302.932 501.271 303.199C501.762 303.455 502.156 303.753 502.455 304.095L501.735 304.959C501.458 304.66 501.143 304.42 500.791 304.239C500.439 304.057 500.039 303.967 499.591 303.967C498.93 303.967 498.348 304.143 497.847 304.495C497.356 304.836 496.972 305.321 496.695 305.951C496.428 306.58 496.295 307.332 496.295 308.207C496.295 309.081 496.428 309.844 496.695 310.495C496.962 311.135 497.335 311.631 497.815 311.983C498.306 312.335 498.882 312.511 499.543 312.511C500.044 312.511 500.492 312.404 500.887 312.191C501.282 311.977 501.644 311.689 501.975 311.327L502.711 312.159C502.295 312.639 501.826 313.012 501.303 313.279C500.78 313.545 500.178 313.679 499.495 313.679ZM507.564 313.679C506.934 313.679 506.342 313.519 505.788 313.199C505.244 312.879 504.801 312.415 504.46 311.807C504.129 311.199 503.964 310.468 503.964 309.615C503.964 308.74 504.129 307.999 504.46 307.391C504.801 306.783 505.244 306.319 505.788 305.999C506.342 305.679 506.934 305.519 507.564 305.519C508.204 305.519 508.796 305.679 509.34 305.999C509.884 306.319 510.321 306.783 510.652 307.391C510.993 307.999 511.164 308.74 511.164 309.615C511.164 310.468 510.993 311.199 510.652 311.807C510.321 312.415 509.884 312.879 509.34 313.199C508.796 313.519 508.204 313.679 507.564 313.679ZM507.564 312.591C508.236 312.591 508.774 312.319 509.18 311.775C509.596 311.22 509.804 310.5 509.804 309.615C509.804 308.719 509.596 307.993 509.18 307.439C508.774 306.884 508.236 306.607 507.564 306.607C506.902 306.607 506.364 306.884 505.948 307.439C505.532 307.993 505.324 308.719 505.324 309.615C505.324 310.5 505.532 311.22 505.948 311.775C506.364 312.319 506.902 312.591 507.564 312.591ZM513.212 313.487V305.711H514.3L514.412 306.831H514.46C514.801 306.457 515.174 306.148 515.58 305.903C515.985 305.647 516.417 305.519 516.876 305.519C517.473 305.519 517.937 305.652 518.268 305.919C518.609 306.175 518.86 306.537 519.02 307.007C519.425 306.569 519.836 306.212 520.252 305.935C520.668 305.657 521.11 305.519 521.58 305.519C522.38 305.519 522.972 305.78 523.356 306.303C523.75 306.815 523.948 307.567 523.948 308.559V313.487H522.636V308.735C522.636 308.009 522.518 307.481 522.284 307.151C522.049 306.82 521.686 306.655 521.196 306.655C520.62 306.655 519.969 307.055 519.244 307.855V313.487H517.932V308.735C517.932 308.009 517.814 307.481 517.58 307.151C517.345 306.82 516.977 306.655 516.476 306.655C515.9 306.655 515.249 307.055 514.524 307.855V313.487H513.212ZM526.477 316.767V305.711H527.565L527.677 306.607H527.725C528.077 306.308 528.461 306.052 528.877 305.839C529.304 305.625 529.746 305.519 530.205 305.519C531.208 305.519 531.97 305.881 532.493 306.607C533.016 307.321 533.277 308.281 533.277 309.487C533.277 310.361 533.117 311.113 532.797 311.743C532.488 312.372 532.077 312.852 531.565 313.183C531.064 313.513 530.514 313.679 529.917 313.679C529.554 313.679 529.192 313.599 528.829 313.439C528.477 313.279 528.12 313.06 527.757 312.783L527.789 314.143V316.767H526.477ZM529.693 312.575C530.333 312.575 530.861 312.303 531.277 311.759C531.704 311.204 531.917 310.447 531.917 309.487C531.917 308.633 531.757 307.945 531.437 307.423C531.128 306.889 530.605 306.623 529.869 306.623C529.538 306.623 529.202 306.713 528.861 306.895C528.53 307.076 528.173 307.337 527.789 307.679V311.759C528.141 312.057 528.482 312.271 528.813 312.399C529.144 312.516 529.437 312.575 529.693 312.575ZM538.376 313.679C537.747 313.679 537.155 313.519 536.6 313.199C536.056 312.879 535.613 312.415 535.272 311.807C534.941 311.199 534.776 310.468 534.776 309.615C534.776 308.74 534.941 307.999 535.272 307.391C535.613 306.783 536.056 306.319 536.6 305.999C537.155 305.679 537.747 305.519 538.376 305.519C539.016 305.519 539.608 305.679 540.152 305.999C540.696 306.319 541.133 306.783 541.464 307.391C541.805 307.999 541.976 308.74 541.976 309.615C541.976 310.468 541.805 311.199 541.464 311.807C541.133 312.415 540.696 312.879 540.152 313.199C539.608 313.519 539.016 313.679 538.376 313.679ZM538.376 312.591C539.048 312.591 539.587 312.319 539.992 311.775C540.408 311.22 540.616 310.5 540.616 309.615C540.616 308.719 540.408 307.993 539.992 307.439C539.587 306.884 539.048 306.607 538.376 306.607C537.715 306.607 537.176 306.884 536.76 307.439C536.344 307.993 536.136 308.719 536.136 309.615C536.136 310.5 536.344 311.22 536.76 311.775C537.176 312.319 537.715 312.591 538.376 312.591ZM544.024 313.487V305.711H545.112L545.224 306.831H545.272C545.645 306.457 546.04 306.148 546.456 305.903C546.872 305.647 547.347 305.519 547.88 305.519C548.701 305.519 549.299 305.78 549.672 306.303C550.056 306.815 550.248 307.567 550.248 308.559V313.487H548.936V308.735C548.936 308.009 548.819 307.481 548.584 307.151C548.349 306.82 547.976 306.655 547.464 306.655C547.069 306.655 546.712 306.756 546.392 306.959C546.083 307.161 545.731 307.46 545.336 307.855V313.487H544.024ZM555.926 313.679C555.233 313.679 554.603 313.519 554.038 313.199C553.473 312.868 553.025 312.399 552.694 311.791C552.363 311.183 552.198 310.457 552.198 309.615C552.198 308.761 552.363 308.031 552.694 307.423C553.035 306.815 553.473 306.345 554.006 306.015C554.539 305.684 555.099 305.519 555.686 305.519C556.678 305.519 557.441 305.849 557.974 306.511C558.518 307.172 558.79 308.057 558.79 309.167C558.79 309.305 558.785 309.444 558.774 309.583C558.774 309.711 558.763 309.823 558.742 309.919H553.494C553.547 310.74 553.803 311.396 554.262 311.887C554.731 312.377 555.339 312.623 556.086 312.623C556.459 312.623 556.801 312.569 557.11 312.463C557.43 312.345 557.734 312.196 558.022 312.015L558.486 312.879C558.155 313.092 557.777 313.279 557.35 313.439C556.934 313.599 556.459 313.679 555.926 313.679ZM553.478 308.975H557.638C557.638 308.185 557.467 307.588 557.126 307.183C556.795 306.767 556.326 306.559 555.718 306.559C555.174 306.559 554.683 306.772 554.246 307.199C553.819 307.615 553.563 308.207 553.478 308.975ZM560.712 313.487V305.711H561.8L561.912 306.831H561.96C562.333 306.457 562.728 306.148 563.144 305.903C563.56 305.647 564.034 305.519 564.568 305.519C565.389 305.519 565.986 305.78 566.36 306.303C566.744 306.815 566.936 307.567 566.936 308.559V313.487H565.624V308.735C565.624 308.009 565.506 307.481 565.272 307.151C565.037 306.82 564.664 306.655 564.152 306.655C563.757 306.655 563.4 306.756 563.08 306.959C562.77 307.161 562.418 307.46 562.024 307.855V313.487H560.712ZM571.91 313.679C571.078 313.679 570.496 313.439 570.166 312.959C569.846 312.479 569.686 311.855 569.686 311.087V306.783H568.534V305.791L569.75 305.711L569.91 303.535H571.014V305.711H573.11V306.783H571.014V311.103C571.014 311.583 571.099 311.956 571.27 312.223C571.451 312.479 571.766 312.607 572.214 312.607C572.352 312.607 572.502 312.585 572.662 312.543C572.822 312.489 572.966 312.441 573.094 312.399L573.35 313.391C573.136 313.465 572.902 313.529 572.646 313.583C572.4 313.647 572.155 313.679 571.91 313.679ZM497.703 333.487V324.111H494.535V322.991H502.215V324.111H499.047V333.487H497.703ZM506.067 333.679C505.373 333.679 504.744 333.519 504.179 333.199C503.613 332.868 503.165 332.399 502.835 331.791C502.504 331.183 502.339 330.457 502.339 329.615C502.339 328.761 502.504 328.031 502.835 327.423C503.176 326.815 503.613 326.345 504.147 326.015C504.68 325.684 505.24 325.519 505.827 325.519C506.819 325.519 507.581 325.849 508.115 326.511C508.659 327.172 508.931 328.057 508.931 329.167C508.931 329.305 508.925 329.444 508.915 329.583C508.915 329.711 508.904 329.823 508.883 329.919H503.635C503.688 330.74 503.944 331.396 504.403 331.887C504.872 332.377 505.48 332.623 506.227 332.623C506.6 332.623 506.941 332.569 507.251 332.463C507.571 332.345 507.875 332.196 508.163 332.015L508.627 332.879C508.296 333.092 507.917 333.279 507.491 333.439C507.075 333.599 506.6 333.679 506.067 333.679ZM503.619 328.975H507.779C507.779 328.185 507.608 327.588 507.267 327.183C506.936 326.767 506.467 326.559 505.859 326.559C505.315 326.559 504.824 326.772 504.387 327.199C503.96 327.615 503.704 328.207 503.619 328.975ZM512.884 333.679C512.329 333.679 511.801 333.577 511.3 333.375C510.799 333.161 510.361 332.905 509.988 332.607L510.644 331.727C510.985 331.993 511.337 332.217 511.7 332.399C512.063 332.569 512.473 332.655 512.932 332.655C513.444 332.655 513.828 332.537 514.084 332.303C514.34 332.057 514.468 331.769 514.468 331.439C514.468 331.172 514.377 330.948 514.196 330.767C514.025 330.585 513.801 330.436 513.524 330.319C513.257 330.191 512.98 330.073 512.692 329.967C512.329 329.828 511.972 329.673 511.62 329.503C511.268 329.321 510.98 329.092 510.756 328.815C510.532 328.527 510.42 328.164 510.42 327.727C510.42 327.097 510.655 326.575 511.124 326.159C511.604 325.732 512.265 325.519 513.108 325.519C513.588 325.519 514.036 325.604 514.452 325.775C514.868 325.945 515.225 326.153 515.524 326.399L514.884 327.231C514.617 327.028 514.34 326.863 514.052 326.735C513.764 326.607 513.449 326.543 513.108 326.543C512.617 326.543 512.255 326.655 512.02 326.879C511.796 327.103 511.684 327.364 511.684 327.663C511.684 327.908 511.764 328.111 511.924 328.271C512.084 328.42 512.292 328.553 512.548 328.671C512.804 328.777 513.076 328.889 513.364 329.007C513.737 329.145 514.105 329.305 514.468 329.487C514.831 329.657 515.129 329.892 515.364 330.191C515.609 330.479 515.732 330.868 515.732 331.359C515.732 331.775 515.62 332.159 515.396 332.511C515.183 332.863 514.863 333.145 514.436 333.359C514.02 333.572 513.503 333.679 512.884 333.679ZM519.691 333.679C518.859 333.679 518.277 333.439 517.947 332.959C517.627 332.479 517.467 331.855 517.467 331.087V326.783H516.315V325.791L517.531 325.711L517.691 323.535H518.795V325.711H520.891V326.783H518.795V331.103C518.795 331.583 518.88 331.956 519.051 332.223C519.232 332.479 519.547 332.607 519.995 332.607C520.133 332.607 520.283 332.585 520.443 332.543C520.603 332.489 520.747 332.441 520.875 332.399L521.131 333.391C520.917 333.465 520.683 333.529 520.427 333.583C520.181 333.647 519.936 333.679 519.691 333.679ZM522.649 333.487V325.711H523.961V333.487H522.649ZM523.321 324.111C523.065 324.111 522.852 324.036 522.681 323.887C522.521 323.727 522.441 323.513 522.441 323.247C522.441 322.991 522.521 322.783 522.681 322.623C522.852 322.463 523.065 322.383 523.321 322.383C523.577 322.383 523.785 322.463 523.945 322.623C524.116 322.783 524.201 322.991 524.201 323.247C524.201 323.513 524.116 323.727 523.945 323.887C523.785 324.036 523.577 324.111 523.321 324.111ZM526.587 333.487V325.711H527.675L527.787 326.831H527.835C528.208 326.457 528.603 326.148 529.019 325.903C529.435 325.647 529.909 325.519 530.443 325.519C531.264 325.519 531.861 325.78 532.235 326.303C532.619 326.815 532.811 327.567 532.811 328.559V333.487H531.499V328.735C531.499 328.009 531.381 327.481 531.147 327.151C530.912 326.82 530.539 326.655 530.027 326.655C529.632 326.655 529.275 326.756 528.955 326.959C528.645 327.161 528.293 327.46 527.899 327.855V333.487H526.587ZM537.961 337.071C537.011 337.071 536.238 336.889 535.641 336.527C535.043 336.164 534.745 335.647 534.745 334.975C534.745 334.644 534.846 334.324 535.049 334.015C535.251 333.716 535.529 333.449 535.881 333.215V333.151C535.689 333.033 535.523 332.868 535.385 332.655C535.257 332.441 535.193 332.185 535.193 331.887C535.193 331.556 535.283 331.268 535.465 331.023C535.646 330.777 535.838 330.585 536.041 330.447V330.383C535.785 330.169 535.55 329.881 535.337 329.519C535.134 329.156 535.033 328.745 535.033 328.287C535.033 327.721 535.166 327.231 535.433 326.815C535.699 326.399 536.057 326.079 536.505 325.855C536.953 325.631 537.438 325.519 537.961 325.519C538.174 325.519 538.377 325.54 538.569 325.583C538.761 325.615 538.926 325.657 539.065 325.711H541.769V326.719H540.169C540.35 326.889 540.499 327.119 540.617 327.407C540.745 327.684 540.809 327.988 540.809 328.319C540.809 328.873 540.681 329.353 540.425 329.759C540.169 330.164 539.827 330.479 539.401 330.703C538.974 330.916 538.494 331.023 537.961 331.023C537.545 331.023 537.155 330.932 536.793 330.751C536.654 330.868 536.537 331.001 536.441 331.151C536.345 331.289 536.297 331.465 536.297 331.679C536.297 331.924 536.393 332.127 536.585 332.287C536.787 332.447 537.15 332.527 537.673 332.527H539.177C540.083 332.527 540.761 332.676 541.209 332.975C541.667 333.263 541.897 333.732 541.897 334.383C541.897 334.863 541.737 335.305 541.417 335.711C541.097 336.116 540.643 336.441 540.057 336.687C539.47 336.943 538.771 337.071 537.961 337.071ZM537.961 330.143C538.409 330.143 538.793 329.977 539.113 329.647C539.443 329.305 539.609 328.852 539.609 328.287C539.609 327.721 539.449 327.279 539.129 326.959C538.809 326.639 538.419 326.479 537.961 326.479C537.502 326.479 537.113 326.639 536.793 326.959C536.473 327.279 536.313 327.721 536.313 328.287C536.313 328.852 536.473 329.305 536.793 329.647C537.123 329.977 537.513 330.143 537.961 330.143ZM538.153 336.159C538.899 336.159 539.497 335.993 539.945 335.663C540.393 335.343 540.617 334.98 540.617 334.575C540.617 334.212 540.478 333.961 540.201 333.823C539.934 333.684 539.55 333.615 539.049 333.615H537.705C537.555 333.615 537.39 333.604 537.209 333.583C537.038 333.561 536.867 333.529 536.697 333.487C536.419 333.689 536.217 333.903 536.089 334.127C535.961 334.351 535.897 334.575 535.897 334.799C535.897 335.215 536.094 335.545 536.489 335.791C536.894 336.036 537.449 336.159 538.153 336.159Z" fill="#914618"/>
<path d="M544.399 129.202L543.903 130.802H547.055L546.559 129.202C546.367 128.615 546.185 128.034 546.015 127.458C545.844 126.871 545.673 126.274 545.503 125.666H545.439C545.279 126.274 545.113 126.871 544.943 127.458C544.772 128.034 544.591 128.615 544.399 129.202ZM541.199 135.074L544.751 124.578H546.255L549.807 135.074H548.383L547.391 131.874H543.567L542.559 135.074H541.199ZM553.822 135.266C552.851 135.266 552.073 134.914 551.486 134.21C550.899 133.495 550.606 132.493 550.606 131.202C550.606 130.359 550.761 129.634 551.07 129.026C551.39 128.407 551.806 127.933 552.318 127.602C552.841 127.271 553.395 127.106 553.982 127.106C554.43 127.106 554.819 127.186 555.15 127.346C555.481 127.506 555.817 127.725 556.158 128.002L556.094 126.674V123.682H557.422V135.074H556.334L556.222 134.162H556.174C555.875 134.461 555.523 134.722 555.118 134.946C554.713 135.159 554.281 135.266 553.822 135.266ZM554.11 134.162C554.793 134.162 555.454 133.805 556.094 133.09V129.026C555.763 128.727 555.443 128.519 555.134 128.402C554.835 128.274 554.526 128.21 554.206 128.21C553.79 128.21 553.411 128.338 553.07 128.594C552.739 128.839 552.473 129.186 552.27 129.634C552.067 130.071 551.966 130.589 551.966 131.186C551.966 132.114 552.153 132.845 552.526 133.378C552.899 133.901 553.427 134.162 554.11 134.162ZM561.721 135.074L558.921 127.298H560.281L561.753 131.714C561.87 132.098 561.988 132.482 562.105 132.866C562.233 133.25 562.356 133.629 562.473 134.002H562.537C562.654 133.629 562.772 133.25 562.889 132.866C563.017 132.482 563.134 132.098 563.241 131.714L564.713 127.298H566.009L563.257 135.074H561.721ZM568.989 135.266C568.339 135.266 567.795 135.074 567.357 134.69C566.931 134.295 566.717 133.751 566.717 133.058C566.717 132.205 567.096 131.554 567.853 131.106C568.621 130.647 569.832 130.327 571.485 130.146C571.485 129.815 571.437 129.501 571.341 129.202C571.256 128.903 571.096 128.663 570.861 128.482C570.637 128.29 570.312 128.194 569.885 128.194C569.437 128.194 569.016 128.279 568.621 128.45C568.227 128.621 567.875 128.813 567.565 129.026L567.053 128.114C567.416 127.879 567.859 127.655 568.381 127.442C568.915 127.218 569.491 127.106 570.109 127.106C571.059 127.106 571.747 127.399 572.173 127.986C572.6 128.562 572.813 129.335 572.813 130.306V135.074H571.725L571.613 134.146H571.565C571.203 134.445 570.803 134.706 570.365 134.93C569.939 135.154 569.48 135.266 568.989 135.266ZM569.373 134.21C569.747 134.21 570.099 134.119 570.429 133.938C570.76 133.757 571.112 133.501 571.485 133.17V131.01C570.195 131.17 569.288 131.41 568.765 131.73C568.253 132.05 567.997 132.461 567.997 132.962C567.997 133.399 568.131 133.719 568.397 133.922C568.664 134.114 568.989 134.21 569.373 134.21ZM575.26 135.074V127.298H576.348L576.46 128.418H576.508C576.881 128.045 577.276 127.735 577.692 127.49C578.108 127.234 578.582 127.106 579.116 127.106C579.937 127.106 580.534 127.367 580.908 127.89C581.292 128.402 581.484 129.154 581.484 130.146V135.074H580.172V130.322C580.172 129.597 580.054 129.069 579.82 128.738C579.585 128.407 579.212 128.242 578.7 128.242C578.305 128.242 577.948 128.343 577.628 128.546C577.318 128.749 576.966 129.047 576.572 129.442V135.074H575.26ZM587.082 135.266C586.399 135.266 585.78 135.106 585.226 134.786C584.671 134.466 584.234 134.002 583.914 133.394C583.594 132.786 583.434 132.055 583.434 131.202C583.434 130.327 583.604 129.586 583.946 128.978C584.298 128.37 584.756 127.906 585.322 127.586C585.898 127.266 586.516 127.106 587.178 127.106C587.69 127.106 588.127 127.197 588.49 127.378C588.863 127.559 589.183 127.773 589.45 128.018L588.778 128.882C588.554 128.679 588.314 128.514 588.058 128.386C587.812 128.258 587.535 128.194 587.226 128.194C586.756 128.194 586.335 128.322 585.962 128.578C585.599 128.823 585.311 129.175 585.098 129.634C584.895 130.082 584.794 130.605 584.794 131.202C584.794 132.087 585.012 132.807 585.45 133.362C585.898 133.906 586.479 134.178 587.194 134.178C587.556 134.178 587.892 134.103 588.202 133.954C588.511 133.794 588.783 133.607 589.018 133.394L589.594 134.274C589.242 134.583 588.852 134.829 588.426 135.01C587.999 135.181 587.551 135.266 587.082 135.266ZM594.115 135.266C593.421 135.266 592.792 135.106 592.227 134.786C591.661 134.455 591.213 133.986 590.883 133.378C590.552 132.77 590.387 132.045 590.387 131.202C590.387 130.349 590.552 129.618 590.883 129.01C591.224 128.402 591.661 127.933 592.195 127.602C592.728 127.271 593.288 127.106 593.875 127.106C594.867 127.106 595.629 127.437 596.163 128.098C596.707 128.759 596.979 129.645 596.979 130.754C596.979 130.893 596.973 131.031 596.963 131.17C596.963 131.298 596.952 131.41 596.931 131.506H591.683C591.736 132.327 591.992 132.983 592.451 133.474C592.92 133.965 593.528 134.21 594.275 134.21C594.648 134.21 594.989 134.157 595.299 134.05C595.619 133.933 595.923 133.783 596.211 133.602L596.675 134.466C596.344 134.679 595.965 134.866 595.539 135.026C595.123 135.186 594.648 135.266 594.115 135.266ZM591.667 130.562H595.827C595.827 129.773 595.656 129.175 595.315 128.77C594.984 128.354 594.515 128.146 593.907 128.146C593.363 128.146 592.872 128.359 592.435 128.786C592.008 129.202 591.752 129.794 591.667 130.562ZM601.556 135.266C600.586 135.266 599.807 134.914 599.22 134.21C598.634 133.495 598.34 132.493 598.34 131.202C598.34 130.359 598.495 129.634 598.804 129.026C599.124 128.407 599.54 127.933 600.052 127.602C600.575 127.271 601.13 127.106 601.716 127.106C602.164 127.106 602.554 127.186 602.884 127.346C603.215 127.506 603.551 127.725 603.892 128.002L603.828 126.674V123.682H605.156V135.074H604.068L603.956 134.162H603.908C603.61 134.461 603.258 134.722 602.852 134.946C602.447 135.159 602.015 135.266 601.556 135.266ZM601.844 134.162C602.527 134.162 603.188 133.805 603.828 133.09V129.026C603.498 128.727 603.178 128.519 602.868 128.402C602.57 128.274 602.26 128.21 601.94 128.21C601.524 128.21 601.146 128.338 600.804 128.594C600.474 128.839 600.207 129.186 600.004 129.634C599.802 130.071 599.7 130.589 599.7 131.186C599.7 132.114 599.887 132.845 600.26 133.378C600.634 133.901 601.162 134.162 601.844 134.162ZM546.559 155.266C545.684 155.266 544.9 155.053 544.207 154.626C543.524 154.189 542.98 153.565 542.575 152.754C542.18 151.943 541.983 150.967 541.983 149.826C541.983 148.695 542.185 147.725 542.591 146.914C542.996 146.103 543.551 145.479 544.255 145.042C544.959 144.605 545.753 144.386 546.639 144.386C547.279 144.386 547.844 144.519 548.335 144.786C548.825 145.042 549.22 145.341 549.519 145.682L548.799 146.546C548.521 146.247 548.207 146.007 547.855 145.826C547.503 145.645 547.103 145.554 546.655 145.554C545.993 145.554 545.412 145.73 544.911 146.082C544.42 146.423 544.036 146.909 543.759 147.538C543.492 148.167 543.359 148.919 543.359 149.794C543.359 150.669 543.492 151.431 543.759 152.082C544.025 152.722 544.399 153.218 544.879 153.57C545.369 153.922 545.945 154.098 546.607 154.098C547.108 154.098 547.556 153.991 547.951 153.778C548.345 153.565 548.708 153.277 549.039 152.914L549.775 153.746C549.359 154.226 548.889 154.599 548.367 154.866C547.844 155.133 547.241 155.266 546.559 155.266ZM554.627 155.266C553.998 155.266 553.406 155.106 552.851 154.786C552.307 154.466 551.865 154.002 551.523 153.394C551.193 152.786 551.027 152.055 551.027 151.202C551.027 150.327 551.193 149.586 551.523 148.978C551.865 148.37 552.307 147.906 552.851 147.586C553.406 147.266 553.998 147.106 554.627 147.106C555.267 147.106 555.859 147.266 556.403 147.586C556.947 147.906 557.385 148.37 557.715 148.978C558.057 149.586 558.227 150.327 558.227 151.202C558.227 152.055 558.057 152.786 557.715 153.394C557.385 154.002 556.947 154.466 556.403 154.786C555.859 155.106 555.267 155.266 554.627 155.266ZM554.627 154.178C555.299 154.178 555.838 153.906 556.243 153.362C556.659 152.807 556.867 152.087 556.867 151.202C556.867 150.306 556.659 149.581 556.243 149.026C555.838 148.471 555.299 148.194 554.627 148.194C553.966 148.194 553.427 148.471 553.011 149.026C552.595 149.581 552.387 150.306 552.387 151.202C552.387 152.087 552.595 152.807 553.011 153.362C553.427 153.906 553.966 154.178 554.627 154.178ZM560.275 155.074V147.298H561.363L561.475 148.418H561.523C561.897 148.045 562.291 147.735 562.707 147.49C563.123 147.234 563.598 147.106 564.131 147.106C564.953 147.106 565.55 147.367 565.923 147.89C566.307 148.402 566.499 149.154 566.499 150.146V155.074H565.187V150.322C565.187 149.597 565.07 149.069 564.835 148.738C564.601 148.407 564.227 148.242 563.715 148.242C563.321 148.242 562.963 148.343 562.643 148.546C562.334 148.749 561.982 149.047 561.587 149.442V155.074H560.275ZM571.473 155.266C570.641 155.266 570.06 155.026 569.729 154.546C569.409 154.066 569.249 153.442 569.249 152.674V148.37H568.097V147.378L569.313 147.298L569.473 145.122H570.577V147.298H572.673V148.37H570.577V152.69C570.577 153.17 570.663 153.543 570.833 153.81C571.015 154.066 571.329 154.194 571.777 154.194C571.916 154.194 572.065 154.173 572.225 154.13C572.385 154.077 572.529 154.029 572.657 153.986L572.913 154.978C572.7 155.053 572.465 155.117 572.209 155.17C571.964 155.234 571.719 155.266 571.473 155.266ZM574.432 155.074V147.298H575.52L575.632 148.706H575.68C575.946 148.215 576.272 147.826 576.656 147.538C577.04 147.25 577.45 147.106 577.888 147.106C578.197 147.106 578.474 147.159 578.72 147.266L578.464 148.418C578.336 148.375 578.218 148.343 578.112 148.322C578.005 148.301 577.872 148.29 577.712 148.29C577.381 148.29 577.034 148.423 576.672 148.69C576.32 148.957 576.01 149.421 575.744 150.082V155.074H574.432ZM582.846 155.266C582.217 155.266 581.625 155.106 581.07 154.786C580.526 154.466 580.084 154.002 579.742 153.394C579.412 152.786 579.246 152.055 579.246 151.202C579.246 150.327 579.412 149.586 579.742 148.978C580.084 148.37 580.526 147.906 581.07 147.586C581.625 147.266 582.217 147.106 582.846 147.106C583.486 147.106 584.078 147.266 584.622 147.586C585.166 147.906 585.604 148.37 585.934 148.978C586.276 149.586 586.446 150.327 586.446 151.202C586.446 152.055 586.276 152.786 585.934 153.394C585.604 154.002 585.166 154.466 584.622 154.786C584.078 155.106 583.486 155.266 582.846 155.266ZM582.846 154.178C583.518 154.178 584.057 153.906 584.462 153.362C584.878 152.807 585.086 152.087 585.086 151.202C585.086 150.306 584.878 149.581 584.462 149.026C584.057 148.471 583.518 148.194 582.846 148.194C582.185 148.194 581.646 148.471 581.23 149.026C580.814 149.581 580.606 150.306 580.606 151.202C580.606 152.087 580.814 152.807 581.23 153.362C581.646 153.906 582.185 154.178 582.846 154.178ZM589.886 155.266C589.395 155.266 589.038 155.117 588.814 154.818C588.601 154.509 588.494 154.071 588.494 153.506V143.682H589.806V153.602C589.806 153.805 589.843 153.954 589.918 154.05C589.993 154.135 590.078 154.178 590.174 154.178C590.217 154.178 590.254 154.178 590.286 154.178C590.329 154.167 590.387 154.157 590.462 154.146L590.638 155.138C590.553 155.181 590.451 155.213 590.334 155.234C590.217 155.255 590.067 155.266 589.886 155.266ZM594.604 155.266C594.05 155.266 593.522 155.165 593.02 154.962C592.519 154.749 592.082 154.493 591.708 154.194L592.364 153.314C592.706 153.581 593.058 153.805 593.42 153.986C593.783 154.157 594.194 154.242 594.652 154.242C595.164 154.242 595.548 154.125 595.804 153.89C596.06 153.645 596.188 153.357 596.188 153.026C596.188 152.759 596.098 152.535 595.916 152.354C595.746 152.173 595.522 152.023 595.244 151.906C594.978 151.778 594.7 151.661 594.412 151.554C594.05 151.415 593.692 151.261 593.34 151.09C592.988 150.909 592.7 150.679 592.476 150.402C592.252 150.114 592.14 149.751 592.14 149.314C592.14 148.685 592.375 148.162 592.844 147.746C593.324 147.319 593.986 147.106 594.828 147.106C595.308 147.106 595.756 147.191 596.172 147.362C596.588 147.533 596.946 147.741 597.244 147.986L596.604 148.818C596.338 148.615 596.06 148.45 595.772 148.322C595.484 148.194 595.17 148.13 594.828 148.13C594.338 148.13 593.975 148.242 593.74 148.466C593.516 148.69 593.404 148.951 593.404 149.25C593.404 149.495 593.484 149.698 593.644 149.858C593.804 150.007 594.012 150.141 594.268 150.258C594.524 150.365 594.796 150.477 595.084 150.594C595.458 150.733 595.826 150.893 596.188 151.074C596.551 151.245 596.85 151.479 597.084 151.778C597.33 152.066 597.452 152.455 597.452 152.946C597.452 153.362 597.34 153.746 597.116 154.098C596.903 154.45 596.583 154.733 596.156 154.946C595.74 155.159 595.223 155.266 594.604 155.266Z" fill="#914618"/>
<path d="M424.432 168.889L425.263 166.721L426.095 168.889L428.868 169.852L426.095 170.575L425.263 172.983L424.432 170.575L421.659 169.852L424.432 168.889Z" fill="#6A6057"/>
<path d="M140.71 164.5L141.727 161.851L142.744 164.5L146.132 165.677L142.744 166.561L141.727 169.504L140.71 166.561L137.322 165.677L140.71 164.5Z" fill="#6A6057"/>
<path d="M426.732 82.5463L427.505 84.5449L427.587 84.7579L427.802 84.8337L429.817 85.5424L427.757 86.1435L427.536 86.2078L427.439 86.416L426.528 88.3702L425.755 86.3716L425.673 86.1586L425.458 86.0828L423.443 85.3741L425.503 84.773L425.724 84.7087L425.821 84.5005L426.732 82.5463Z" stroke="#6A6057" stroke-width="1.0025"/>
<path d="M400.225 73.2673L403.43 83.3153L413.321 77.4079L408.341 86.8949L420.289 87.8922L409.454 92.3791L417.869 99.8145L406.249 97.2019L407.193 107.596L400.225 99.1066L393.257 107.596L394.201 97.2019L382.581 99.8145L390.996 92.3791L380.161 87.8922L392.109 86.8949L387.129 77.4079L397.02 83.3153L400.225 73.2673Z" fill="#914618"/>
<defs>
<linearGradient id="paint0_linear_644_56972" x1="295.243" y1="380.286" x2="275.801" y2="-17.7652" gradientUnits="userSpaceOnUse">
<stop stop-color="#DDA562"/>
<stop offset="1" stop-color="#1B1614" stop-opacity="0"/>
</linearGradient>
<linearGradient id="paint1_linear_644_56972" x1="295.243" y1="-26.1234" x2="277.564" y2="353.496" gradientUnits="userSpaceOnUse">
<stop stop-color="#DDA562"/>
<stop offset="1" stop-color="#1B1614" stop-opacity="0"/>
</linearGradient>
</defs>
</svg>
